<svg width="44" height="35" viewBox="0 0 44 35" fill="currentColor" xmlns="http://www.w3.org/2000/svg">
<path d="M23.4832 6.08904C23.5653 4.95746 23.9412 3.8664 24.5742 2.92236C25.2071 1.97832 26.0754 1.21356 27.0943 0.70274C28.1133 0.191916 29.2481 -0.047519 30.3879 0.00780815C31.5277 0.0631353 32.6336 0.411334 33.5976 1.01841C33.7079 1.09011 33.7966 1.19 33.8546 1.30758C33.9126 1.42516 33.9376 1.5561 33.9271 1.68663C33.9166 1.81717 33.871 1.94248 33.7949 2.0494C33.7189 2.15632 33.6153 2.24091 33.495 2.29427C31.8191 3.04388 30.3965 4.25854 29.3981 5.79237C28.3997 7.3262 27.8679 9.11397 27.8667 10.941C27.8667 11.1542 27.8666 11.3675 27.8887 11.5771C27.8988 11.7095 27.8723 11.8423 27.812 11.9609C27.7518 12.0794 27.6601 12.1794 27.5468 12.25C27.4336 12.3205 27.3031 12.359 27.1695 12.3612C27.0359 12.3633 26.9042 12.3292 26.7887 12.2624C25.7082 11.648 24.8246 10.7423 24.2397 9.65001C23.6548 8.55769 23.3925 7.32321 23.4832 6.08904ZM44 24.9043C44.0026 25.7375 43.7704 26.5548 43.3297 27.2635C42.8891 27.9722 42.2575 28.544 41.5066 28.9142L41.426 28.9506L34.3071 31.9653C34.2368 31.9961 34.1638 32.0205 34.089 32.0382L22.3557 34.9544C22.2394 34.9842 22.12 34.9995 22 35H2.93333C2.15536 35 1.40926 34.6928 0.859153 34.1459C0.309047 33.5989 0 32.8572 0 32.0838V24.7931C0 24.0197 0.309047 23.2779 0.859153 22.731C1.40926 22.1841 2.15536 21.8769 2.93333 21.8769H8.19316L12.3402 17.7522C12.8839 17.2092 13.5306 16.7787 14.2427 16.4855C14.9548 16.1924 15.7183 16.0425 16.489 16.0444H25.6667C26.4414 16.0443 27.2061 16.2185 27.9034 16.5541C28.6007 16.8896 29.2127 17.3777 29.6933 17.9817C30.1739 18.5858 30.5108 19.2902 30.6786 20.0421C30.8465 20.794 30.8409 21.5739 30.6625 22.3234L38.3331 20.57C39.0009 20.3942 39.7004 20.3732 40.3776 20.5086C41.0548 20.644 41.6918 20.9322 42.2393 21.3509C42.7868 21.7697 43.2303 22.3079 43.5355 22.9239C43.8408 23.54 43.9997 24.2175 44 24.9043ZM41.0666 24.9043C41.0664 24.6632 41.0103 24.4254 40.9027 24.2094C40.7951 23.9933 40.6388 23.8048 40.4461 23.6585C40.2534 23.5122 40.0293 23.412 39.7913 23.3657C39.5533 23.3194 39.3078 23.3282 39.0738 23.3915L39.017 23.4061L26.7337 26.2148C26.6259 26.2387 26.5159 26.2509 26.4055 26.2513H20.5333C20.1443 26.2513 19.7713 26.0976 19.4962 25.8242C19.2212 25.5507 19.0667 25.1798 19.0667 24.7931C19.0667 24.4064 19.2212 24.0355 19.4962 23.7621C19.7713 23.4886 20.1443 23.335 20.5333 23.335H25.6667C26.2501 23.335 26.8097 23.1046 27.2223 22.6944C27.6349 22.2842 27.8667 21.7279 27.8667 21.1478C27.8667 20.5677 27.6349 20.0114 27.2223 19.6012C26.8097 19.1911 26.2501 18.9606 25.6667 18.9606H16.489C16.1036 18.9594 15.7219 19.0343 15.3659 19.1811C15.01 19.3279 14.6869 19.5435 14.4155 19.8155L10.2667 23.9383V32.0838H21.8167L33.2621 29.2386L40.2288 26.2895C40.4824 26.1567 40.6945 25.9574 40.8422 25.7132C40.9899 25.469 41.0675 25.1893 41.0666 24.9043ZM30.8 10.941C30.8 12.2387 31.1871 13.5073 31.9123 14.5864C32.6375 15.6654 33.6683 16.5064 34.8743 17.003C36.0803 17.4997 37.4073 17.6296 38.6876 17.3764C39.9678 17.1233 41.1439 16.4983 42.0669 15.5807C42.9899 14.663 43.6185 13.4939 43.8732 12.221C44.1278 10.9482 43.9971 9.62892 43.4976 8.42995C42.998 7.23098 42.1521 6.20621 41.0667 5.48521C39.9814 4.76422 38.7053 4.37939 37.4 4.37939C35.6496 4.37939 33.9708 5.0707 32.7331 6.30123C31.4953 7.53176 30.8 9.20072 30.8 10.941Z"/>
</svg>
