<svg width="40" height="41" viewBox="0 0 40 41" fill="currentColor" xmlns="http://www.w3.org/2000/svg">
<path d="M32.5 9.25H28.1688L26.0391 6.05625C25.925 5.88524 25.7704 5.745 25.5892 5.64798C25.408 5.55095 25.2056 5.50012 25 5.5H15C14.7944 5.50012 14.592 5.55095 14.4108 5.64798C14.2296 5.745 14.075 5.88524 13.9609 6.05625L11.8297 9.25H7.5C6.50544 9.25 5.55161 9.64509 4.84835 10.3483C4.14509 11.0516 3.75 12.0054 3.75 13V30.5C3.75 31.4946 4.14509 32.4484 4.84835 33.1517C5.55161 33.8549 6.50544 34.25 7.5 34.25H32.5C33.4946 34.25 34.4484 33.8549 35.1517 33.1517C35.8549 32.4484 36.25 31.4946 36.25 30.5V13C36.25 12.0054 35.8549 11.0516 35.1517 10.3483C34.4484 9.64509 33.4946 9.25 32.5 9.25ZM33.75 30.5C33.75 30.8315 33.6183 31.1495 33.3839 31.3839C33.1495 31.6183 32.8315 31.75 32.5 31.75H7.5C7.16848 31.75 6.85054 31.6183 6.61612 31.3839C6.3817 31.1495 6.25 30.8315 6.25 30.5V13C6.25 12.6685 6.3817 12.3505 6.61612 12.1161C6.85054 11.8817 7.16848 11.75 7.5 11.75H12.5C12.7058 11.7501 12.9085 11.6994 13.0901 11.6024C13.2716 11.5054 13.4264 11.365 13.5406 11.1938L15.6687 8H24.3297L26.4594 11.1938C26.5736 11.365 26.7284 11.5054 26.9099 11.6024C27.0915 11.6994 27.2942 11.7501 27.5 11.75H32.5C32.8315 11.75 33.1495 11.8817 33.3839 12.1161C33.6183 12.3505 33.75 12.6685 33.75 13V30.5ZM20 14.25C18.6403 14.25 17.311 14.6532 16.1805 15.4086C15.0499 16.1641 14.1687 17.2378 13.6483 18.4941C13.128 19.7503 12.9918 21.1326 13.2571 22.4662C13.5224 23.7999 14.1772 25.0249 15.1386 25.9864C16.1001 26.9478 17.3251 27.6026 18.6588 27.8679C19.9924 28.1332 21.3747 27.997 22.6309 27.4767C23.8872 26.9563 24.9609 26.0751 25.7164 24.9445C26.4718 23.814 26.875 22.4847 26.875 21.125C26.8729 19.3023 26.1479 17.5548 24.8591 16.2659C23.5702 14.9771 21.8227 14.2521 20 14.25ZM20 25.5C19.1347 25.5 18.2888 25.2434 17.5694 24.7627C16.8499 24.2819 16.2892 23.5987 15.958 22.7992C15.6269 21.9998 15.5403 21.1201 15.7091 20.2715C15.8779 19.4228 16.2946 18.6433 16.9064 18.0314C17.5183 17.4196 18.2978 17.0029 19.1465 16.8341C19.9951 16.6653 20.8748 16.7519 21.6742 17.083C22.4737 17.4142 23.1569 17.9749 23.6377 18.6944C24.1184 19.4138 24.375 20.2597 24.375 21.125C24.375 22.2853 23.9141 23.3981 23.0936 24.2186C22.2731 25.0391 21.1603 25.5 20 25.5Z"/>
</svg>
