<svg width="44" height="37" viewBox="0 0 44 37" fill="currentColor" xmlns="http://www.w3.org/2000/svg">
<path d="M18.6154 16.8182C18.6154 17.4834 18.4169 18.1338 18.045 18.6869C17.6731 19.2401 17.1445 19.6712 16.526 19.9258C15.9075 20.1804 15.227 20.247 14.5705 20.1172C13.9139 19.9874 13.3108 19.667 12.8375 19.1966C12.3641 18.7262 12.0418 18.1269 11.9112 17.4744C11.7806 16.8219 11.8476 16.1456 12.1038 15.531C12.36 14.9163 12.7938 14.391 13.3504 14.0214C13.907 13.6518 14.5614 13.4545 15.2308 13.4545C16.1284 13.4545 16.9893 13.8089 17.6241 14.4397C18.2588 15.0705 18.6154 15.9261 18.6154 16.8182ZM44 3.36364V33.6364C44 34.5285 43.6434 35.384 43.0087 36.0148C42.3739 36.6456 41.513 37 40.6154 37H3.38462C2.48696 37 1.62607 36.6456 0.991331 36.0148C0.356592 35.384 0 34.5285 0 33.6364V3.36364C0 2.47154 0.356592 1.61599 0.991331 0.985186C1.62607 0.354382 2.48696 0 3.38462 0H40.6154C41.513 0 42.3739 0.354382 43.0087 0.985186C43.6434 1.61599 44 2.47154 44 3.36364ZM23.6394 26.4886C23.0918 24.4566 21.7933 22.7045 20.0031 21.5819C20.9538 20.6427 21.6025 19.4441 21.867 18.138C22.1314 16.832 21.9997 15.4773 21.4886 14.2457C20.9774 13.0142 20.1098 11.9611 18.9957 11.2202C17.8817 10.4792 16.5713 10.0836 15.2308 10.0836C13.8902 10.0836 12.5799 10.4792 11.4658 11.2202C10.3517 11.9611 9.48413 13.0142 8.97297 14.2457C8.46181 15.4773 8.33011 16.832 8.59457 18.138C8.85903 19.4441 9.50774 20.6427 10.4585 21.5819C8.66939 22.7057 7.37127 24.4573 6.82212 26.4886C6.70991 26.9207 6.77502 27.3794 7.00313 27.7638C7.23124 28.1482 7.60366 28.4268 8.03846 28.5384C8.47326 28.6499 8.93483 28.5852 9.32163 28.3585C9.70842 28.1318 9.98875 27.7617 10.101 27.3295C10.6594 25.1747 12.8637 23.5455 15.2308 23.5455C17.5979 23.5455 19.8042 25.1705 20.3606 27.3295C20.4728 27.7617 20.7531 28.1318 21.1399 28.3585C21.5267 28.5852 21.9883 28.6499 22.4231 28.5384C22.8579 28.4268 23.2303 28.1482 23.4584 27.7638C23.6865 27.3794 23.7516 26.9207 23.6394 26.4886ZM37.2308 21.8636C37.2308 21.4176 37.0525 20.9898 36.7351 20.6744C36.4177 20.359 35.9873 20.1818 35.5385 20.1818H27.0769C26.6281 20.1818 26.1976 20.359 25.8803 20.6744C25.5629 20.9898 25.3846 21.4176 25.3846 21.8636C25.3846 22.3097 25.5629 22.7375 25.8803 23.0529C26.1976 23.3683 26.6281 23.5455 27.0769 23.5455H35.5385C35.9873 23.5455 36.4177 23.3683 36.7351 23.0529C37.0525 22.7375 37.2308 22.3097 37.2308 21.8636ZM37.2308 15.1364C37.2308 14.6903 37.0525 14.2625 36.7351 13.9471C36.4177 13.6317 35.9873 13.4545 35.5385 13.4545H27.0769C26.6281 13.4545 26.1976 13.6317 25.8803 13.9471C25.5629 14.2625 25.3846 14.6903 25.3846 15.1364C25.3846 15.5824 25.5629 16.0102 25.8803 16.3256C26.1976 16.641 26.6281 16.8182 27.0769 16.8182H35.5385C35.9873 16.8182 36.4177 16.641 36.7351 16.3256C37.0525 16.0102 37.2308 15.5824 37.2308 15.1364Z"/>
</svg>
