<svg width="56" height="51" viewBox="0 0 56 51" fill="currentColor" xmlns="http://www.w3.org/2000/svg">
<path d="M17.985 19.3467C18.202 19.5578 18.3741 19.8084 18.4915 20.0843C18.6089 20.3602 18.6694 20.6559 18.6694 20.9546C18.6694 21.2532 18.6089 21.5489 18.4915 21.8248C18.3741 22.1007 18.202 22.3514 17.985 22.5624L8.65193 31.6528C8.43523 31.8641 8.1779 32.0317 7.89464 32.1461C7.61139 32.2604 7.30776 32.3193 7.00113 32.3193C6.69451 32.3193 6.39088 32.2604 6.10763 32.1461C5.82437 32.0317 5.56704 31.8641 5.35034 31.6528L0.683782 27.1076C0.466996 26.8964 0.295033 26.6458 0.177709 26.3699C0.0603856 26.094 0 25.7983 0 25.4997C0 24.8967 0.245963 24.3183 0.683782 23.8919C1.1216 23.4655 1.71541 23.2259 2.33458 23.2259C2.95374 23.2259 3.54755 23.4655 3.98537 23.8919L7.00113 26.832L14.6835 19.3467C14.9002 19.1354 15.1575 18.9678 15.4407 18.8534C15.724 18.739 16.0276 18.6802 16.3343 18.6802C16.6409 18.6802 16.9445 18.739 17.2278 18.8534C17.511 18.9678 17.7683 19.1354 17.985 19.3467ZM14.6835 1.166L7.00113 8.65133L3.98537 5.71117C3.54755 5.28474 2.95374 5.04518 2.33458 5.04518C1.71541 5.04518 1.1216 5.28474 0.683782 5.71117C0.245963 6.1376 4.61316e-09 6.71597 0 7.31903C-4.61316e-09 7.92209 0.245963 8.50046 0.683782 8.92689L5.35034 13.4721C5.56704 13.6834 5.82437 13.851 6.10763 13.9653C6.39088 14.0797 6.69451 14.1386 7.00113 14.1386C7.30776 14.1386 7.61139 14.0797 7.89464 13.9653C8.1779 13.851 8.43523 13.6834 8.65193 13.4721L17.985 4.38171C18.4229 3.95528 18.6688 3.37692 18.6688 2.77385C18.6688 2.17079 18.4229 1.59243 17.985 1.166C17.5472 0.739566 16.9534 0.5 16.3343 0.5C15.7151 0.5 15.1213 0.739566 14.6835 1.166ZM14.6835 37.5274L7.00113 45.0128L3.98537 42.0726C3.76859 41.8614 3.51122 41.694 3.22798 41.5797C2.94474 41.4654 2.64116 41.4066 2.33458 41.4066C2.028 41.4066 1.72442 41.4654 1.44117 41.5797C1.15793 41.694 0.900567 41.8614 0.683782 42.0726C0.466996 42.2837 0.295033 42.5344 0.177709 42.8103C0.0603856 43.0862 0 43.3818 0 43.6804C0 43.9791 0.0603856 44.2747 0.177709 44.5506C0.295033 44.8265 0.466996 45.0772 0.683782 45.2883L5.35034 49.8335C5.56704 50.0448 5.82437 50.2124 6.10763 50.3268C6.39088 50.4411 6.69451 50.5 7.00113 50.5C7.30776 50.5 7.61139 50.4411 7.89464 50.3268C8.1779 50.2124 8.43523 50.0448 8.65193 49.8335L17.985 40.7431C18.4229 40.3167 18.6688 39.7383 18.6688 39.1353C18.6688 38.5322 18.4229 37.9538 17.985 37.5274C17.5472 37.101 16.9534 36.8614 16.3343 36.8614C15.7151 36.8614 15.1213 37.101 14.6835 37.5274ZM53.6667 2.77385H28.0006C27.3818 2.77385 26.7883 3.01329 26.3508 3.43948C25.9132 3.86567 25.6674 4.44371 25.6674 5.04644V9.59162C25.6674 10.1943 25.9132 10.7724 26.3508 11.1986C26.7883 11.6248 27.3818 11.8642 28.0006 11.8642H53.6667C54.2855 11.8642 54.879 11.6248 55.3166 11.1986C55.7542 10.7724 56 10.1943 56 9.59162V5.04644C56 4.44371 55.7542 3.86567 55.3166 3.43948C54.879 3.01329 54.2855 2.77385 53.6667 2.77385ZM53.6667 39.1353H28.0006C27.3818 39.1353 26.7883 39.3747 26.3508 39.8009C25.9132 40.2271 25.6674 40.8051 25.6674 41.4079V45.953C25.6674 46.5558 25.9132 47.1338 26.3508 47.56C26.7883 47.9862 27.3818 48.2256 28.0006 48.2256H53.6667C54.2855 48.2256 54.879 47.9862 55.3166 47.56C55.7542 47.1338 56 46.5558 56 45.953V41.4079C56 40.8051 55.7542 40.2271 55.3166 39.8009C54.879 39.3747 54.2855 39.1353 53.6667 39.1353ZM53.6667 20.9546H28.0006C27.3818 20.9546 26.7883 21.194 26.3508 21.6202C25.9132 22.0464 25.6674 22.6244 25.6674 23.2271V27.7723C25.6674 28.3751 25.9132 28.9531 26.3508 29.3793C26.7883 29.8055 27.3818 30.0449 28.0006 30.0449H53.6667C54.2855 30.0449 54.879 29.8055 55.3166 29.3793C55.7542 28.9531 56 28.3751 56 27.7723V23.2271C56 22.6244 55.7542 22.0464 55.3166 21.6202C54.879 21.194 54.2855 20.9546 53.6667 20.9546Z"/>
</svg>
