<svg width="33" height="33" viewBox="0 0 33 33" fill="currentColor" xmlns="http://www.w3.org/2000/svg">
<path d="M32.2717 15.7692C32.2746 15.7692 32.2768 15.7692 32.2797 15.7692C32.4806 15.7692 32.6723 15.6849 32.8084 15.5373C32.9467 15.3874 33.0152 15.1864 32.9971 14.9833C32.2739 7.02776 25.9757 0.727055 18.02 0.0023216C17.8183 -0.0135274 17.6151 0.05203 17.4653 0.191069C17.3154 0.329388 17.2319 0.524619 17.234 0.728495C17.3594 11.3012 18.754 15.6215 32.2717 15.7692ZM32.2717 17.2302C18.754 17.3779 17.3601 21.6982 17.2348 32.2709C17.2326 32.4748 17.3162 32.6701 17.466 32.8084C17.6 32.9316 17.775 33 17.9551 33C17.9767 33 17.9991 32.9993 18.0207 32.9971C25.9764 32.2724 32.2746 25.9724 32.9971 18.0162C33.0152 17.813 32.9474 17.612 32.8084 17.4622C32.6694 17.3123 32.4756 17.2381 32.2717 17.2302ZM14.9317 0.00592373C7.00121 0.751549 0.723201 7.05082 0.00355327 14.9847C-0.0144559 15.1879 0.0532588 15.3888 0.19229 15.5387C0.328439 15.6864 0.520778 15.7699 0.72104 15.7699C0.723922 15.7699 0.726803 15.7699 0.729685 15.7699C14.2027 15.6151 15.5938 11.2969 15.7205 0.731377C15.7227 0.527501 15.6384 0.331549 15.4886 0.19323C15.3373 0.0549116 15.1349 -0.0128069 14.9317 0.00592373ZM0.728964 17.2295C0.50493 17.2043 0.32916 17.3109 0.19157 17.4607C0.0532588 17.6106 -0.0151763 17.8116 0.00283295 18.0147C0.722481 25.9486 7.00121 32.2479 14.9317 32.9935C14.9541 32.9957 14.9771 32.9964 14.9995 32.9964C15.1796 32.9964 15.3539 32.9287 15.4879 32.8055C15.6377 32.6672 15.722 32.4712 15.7198 32.2673C15.593 21.7025 14.2027 17.3844 0.728964 17.2295Z"/>
</svg>
