<svg width="40" height="41" viewBox="0 0 40 41" fill="currentColor" xmlns="http://www.w3.org/2000/svg">
<path d="M34.9138 6.76112C34.8959 6.45531 34.7664 6.16671 34.5498 5.95011C34.3332 5.7335 34.0446 5.60398 33.7388 5.58612C21.8435 4.88768 12.3153 8.46893 8.25284 15.1877C6.84466 17.486 6.15075 20.1507 6.25909 22.8439C6.34816 25.3314 7.07316 27.8439 8.41378 30.3205L5.36534 33.3674C5.13079 33.6019 4.99902 33.92 4.99902 34.2517C4.99902 34.5834 5.13079 34.9016 5.36534 35.1361C5.59989 35.3707 5.91801 35.5024 6.24972 35.5024C6.58142 35.5024 6.89954 35.3707 7.13409 35.1361L10.181 32.0877C12.656 33.4267 15.17 34.1517 17.656 34.2408C17.8299 34.2471 18.0034 34.2502 18.1763 34.2502C20.6946 34.2569 23.1653 33.5634 25.3122 32.2471C32.031 28.1846 35.6138 18.658 34.9138 6.76112ZM24.0232 30.1096C20.4685 32.2627 16.2607 32.2971 12.0372 30.2299L25.8857 16.383C26.0018 16.2669 26.0939 16.129 26.1568 15.9772C26.2196 15.8255 26.252 15.6629 26.252 15.4986C26.252 15.3344 26.2196 15.1717 26.1568 15.02C26.0939 14.8683 26.0018 14.7304 25.8857 14.6142C25.7695 14.4981 25.6316 14.406 25.4799 14.3431C25.3282 14.2803 25.1655 14.2479 25.0013 14.2479C24.837 14.2479 24.6744 14.2803 24.5227 14.3431C24.3709 14.406 24.233 14.4981 24.1169 14.6142L10.27 28.4689C8.20909 24.2502 8.23878 20.0314 10.3903 16.483C13.8419 10.7846 22.0466 7.66424 32.47 8.03612C32.8435 18.4517 29.7216 26.658 24.0232 30.1096Z"/>
</svg>
