<svg width="45" height="51" viewBox="0 0 45 51" fill="currentColor" xmlns="http://www.w3.org/2000/svg">
<path d="M41.25 17.1667H15V11.6111C15 9.64654 15.7902 7.76244 17.1967 6.37328C18.6032 4.98412 20.5109 4.2037 22.5 4.2037C26.1023 4.2037 29.3438 6.75 30.0375 10.1273C30.1405 10.6046 30.43 11.0224 30.8432 11.2899C31.2564 11.5575 31.7598 11.6531 32.244 11.5562C32.7282 11.4592 33.1541 11.1774 33.429 10.772C33.704 10.3666 33.8059 9.87037 33.7125 9.3912C32.6531 4.23843 27.9375 0.5 22.5 0.5C19.5173 0.503064 16.6576 1.67468 14.5485 3.75775C12.4394 5.84083 11.2531 8.6652 11.25 11.6111V17.1667H3.75C2.75544 17.1667 1.80161 17.5569 1.09835 18.2515C0.395088 18.946 0 19.8881 0 20.8704V46.7963C0 47.7786 0.395088 48.7206 1.09835 49.4152C1.80161 50.1098 2.75544 50.5 3.75 50.5H41.25C42.2446 50.5 43.1984 50.1098 43.9016 49.4152C44.6049 48.7206 45 47.7786 45 46.7963V20.8704C45 19.8881 44.6049 18.946 43.9016 18.2515C43.1984 17.5569 42.2446 17.1667 41.25 17.1667ZM24.375 35.3681V41.2407C24.375 41.7319 24.1775 42.2029 23.8258 42.5502C23.4742 42.8975 22.9973 43.0926 22.5 43.0926C22.0027 43.0926 21.5258 42.8975 21.1742 42.5502C20.8225 42.2029 20.625 41.7319 20.625 41.2407V35.3681C19.374 34.9312 18.3196 34.0716 17.6482 32.9412C16.9768 31.8109 16.7316 30.4824 16.956 29.1908C17.1804 27.8991 17.8599 26.7274 18.8744 25.8827C19.8889 25.038 21.1731 24.5747 22.5 24.5747C23.8269 24.5747 25.1111 25.038 26.1256 25.8827C27.1401 26.7274 27.8196 27.8991 28.044 29.1908C28.2684 30.4824 28.0232 31.8109 27.3518 32.9412C26.6804 34.0716 25.626 34.9312 24.375 35.3681Z"/>
</svg>
