<svg width="28" height="29" viewBox="0 0 28 29" fill="currentColor" xmlns="http://www.w3.org/2000/svg">
<path d="M23.0371 17.9459L18.3261 15.8349L18.3131 15.8289C18.0685 15.7243 17.8017 15.6823 17.5369 15.7068C17.272 15.7312 17.0174 15.8213 16.7961 15.9689C16.77 15.9861 16.745 16.0048 16.7211 16.0249L14.2871 18.0999C12.7451 17.3509 11.1531 15.7709 10.4041 14.2489L12.4821 11.7779C12.5021 11.7529 12.5211 11.7279 12.5391 11.7009C12.6835 11.4802 12.7711 11.2272 12.7942 10.9644C12.8172 10.7017 12.7749 10.4373 12.6711 10.1949V10.1829L10.5541 5.46381C10.4168 5.14707 10.1808 4.88322 9.88124 4.71164C9.5817 4.54006 9.2347 4.46996 8.89204 4.5118C7.537 4.69011 6.2932 5.35557 5.39295 6.38391C4.4927 7.41225 3.99756 8.73313 4.00001 10.0999C4.00001 18.0399 10.4601 24.5 18.4001 24.5C19.7668 24.5024 21.0877 24.0073 22.116 23.107C23.1444 22.2068 23.8098 20.963 23.9882 19.6079C24.0301 19.2654 23.9601 18.9185 23.7887 18.619C23.6173 18.3194 23.3537 18.0834 23.0371 17.9459ZM18.4001 22.9C15.0065 22.8963 11.7529 21.5465 9.35317 19.1468C6.95349 16.7471 5.60373 13.4935 5.60002 10.0999C5.59626 9.12333 5.94807 8.17883 6.58976 7.44273C7.23145 6.70664 8.11914 6.22928 9.08705 6.09981C9.08665 6.1038 9.08665 6.10782 9.08705 6.11181L11.1871 10.8119L9.12005 13.2859C9.09907 13.31 9.08001 13.3358 9.06305 13.3629C8.91256 13.5938 8.82428 13.8597 8.80676 14.1348C8.78924 14.4098 8.84307 14.6848 8.96304 14.9329C9.86905 16.7859 11.7361 18.6389 13.6091 19.5439C13.859 19.6628 14.1356 19.7148 14.4116 19.6948C14.6877 19.6748 14.9538 19.5836 15.1841 19.4299C15.2098 19.4126 15.2345 19.394 15.2581 19.3739L17.6891 17.2999L22.3891 19.4049C22.3891 19.4049 22.3971 19.4049 22.4001 19.4049C22.2723 20.3742 21.7956 21.2637 21.0594 21.907C20.3232 22.5503 19.3778 22.9033 18.4001 22.9Z"/>
</svg>
