<svg width="40" height="41" viewBox="0 0 40 41" fill="currentColor" xmlns="http://www.w3.org/2000/svg">
<path d="M33.75 11.75H28.2687C28.3297 11.6984 28.3922 11.6484 28.4516 11.5938C28.9261 11.1722 29.3086 10.6572 29.575 10.081C29.8414 9.50487 29.9861 8.87993 30 8.24531C30.0205 7.55105 29.8989 6.85992 29.6427 6.21435C29.3865 5.56878 29.001 4.9824 28.5099 4.4912C28.0189 3.99999 27.4326 3.61434 26.7871 3.35791C26.1416 3.10148 25.4505 2.97968 24.7563 3C24.1214 3.01367 23.4961 3.15826 22.9197 3.4247C22.3433 3.69114 21.828 4.0737 21.4062 4.54844C20.8226 5.22483 20.3482 5.98819 20 6.81094C19.6518 5.98819 19.1774 5.22483 18.5938 4.54844C18.172 4.0737 17.6567 3.69114 17.0803 3.4247C16.5039 3.15826 15.8786 3.01367 15.2437 3C14.5495 2.97968 13.8584 3.10148 13.2129 3.35791C12.5674 3.61434 11.9811 3.99999 11.4901 4.4912C10.999 4.9824 10.6135 5.56878 10.3573 6.21435C10.1011 6.85992 9.97948 7.55105 10 8.24531C10.0139 8.87993 10.1586 9.50487 10.425 10.081C10.6914 10.6572 11.0739 11.1722 11.5484 11.5938C11.6078 11.6453 11.6703 11.6953 11.7313 11.75H6.25C5.58696 11.75 4.95107 12.0134 4.48223 12.4822C4.01339 12.9511 3.75 13.587 3.75 14.25V19.25C3.75 19.913 4.01339 20.5489 4.48223 21.0178C4.95107 21.4866 5.58696 21.75 6.25 21.75V31.75C6.25 32.413 6.51339 33.0489 6.98223 33.5178C7.45107 33.9866 8.08696 34.25 8.75 34.25H31.25C31.913 34.25 32.5489 33.9866 33.0178 33.5178C33.4866 33.0489 33.75 32.413 33.75 31.75V21.75C34.413 21.75 35.0489 21.4866 35.5178 21.0178C35.9866 20.5489 36.25 19.913 36.25 19.25V14.25C36.25 13.587 35.9866 12.9511 35.5178 12.4822C35.0489 12.0134 34.413 11.75 33.75 11.75ZM23.2812 6.20469C23.4792 5.98612 23.7201 5.81084 23.989 5.68984C24.2579 5.56884 24.5489 5.50474 24.8438 5.50156H24.9203C25.2659 5.50372 25.6076 5.57484 25.9253 5.71074C26.243 5.84664 26.5305 6.04459 26.7707 6.29299C27.011 6.5414 27.1992 6.83526 27.3245 7.15735C27.4497 7.47944 27.5094 7.82329 27.5 8.16875C27.4968 8.46359 27.4327 8.75459 27.3117 9.02348C27.1907 9.29236 27.0154 9.53333 26.7969 9.73125C25.3141 11.0437 22.8531 11.5063 21.3281 11.6687C21.5156 10.0141 22.0312 7.60937 23.2812 6.20469ZM13.2672 6.26094C13.7515 5.7767 14.4073 5.50323 15.0922 5.5H15.1688C15.4636 5.50318 15.7546 5.56728 16.0235 5.68828C16.2924 5.80928 16.5333 5.98456 16.7313 6.20312C18.0422 7.68437 18.5047 10.1406 18.6672 11.6594C17.1484 11.5031 14.6922 11.0344 13.2109 9.72344C12.9924 9.52552 12.8171 9.28455 12.6961 9.01566C12.5751 8.74678 12.511 8.45578 12.5078 8.16094C12.4981 7.80974 12.5599 7.46024 12.6893 7.13363C12.8188 6.80702 13.0133 6.51012 13.2609 6.26094H13.2672ZM6.25 14.25H18.75V19.25H6.25V14.25ZM8.75 21.75H18.75V31.75H8.75V21.75ZM31.25 31.75H21.25V21.75H31.25V31.75ZM33.75 19.25H21.25V14.25H33.75V19.25Z"/>
</svg>
