<svg width="20" height="20" viewBox="0 0 20 20" fill="currentColor" xmlns="http://www.w3.org/2000/svg">
<path fill-rule="evenodd" clip-rule="evenodd" d="M8.79844 2.19968C7.04801 2.19968 5.36927 2.89504 4.13153 4.13278C2.89379 5.37052 2.19844 7.04925 2.19844 8.79968C2.19844 10.5501 2.89379 12.2288 4.13153 13.4666C5.36927 14.7043 7.04801 15.3997 8.79844 15.3997C10.5489 15.3997 12.2276 14.7043 13.4653 13.4666C14.7031 12.2288 15.3984 10.5501 15.3984 8.79968C15.3984 7.04925 14.7031 5.37052 13.4653 4.13278C12.2276 2.89504 10.5489 2.19968 8.79844 2.19968ZM0.398438 8.79968C0.398551 7.45649 0.720772 6.1329 1.33807 4.93996C1.95537 3.74701 2.84975 2.7195 3.94618 1.9436C5.04261 1.1677 6.30912 0.666052 7.63948 0.480728C8.96983 0.295405 10.3252 0.431813 11.592 0.87851C12.8587 1.32521 13.9999 2.06917 14.9197 3.04798C15.8395 4.0268 16.5112 5.21193 16.8784 6.50395C17.2456 7.79598 17.2977 9.15723 17.0301 10.4735C16.7626 11.7898 16.1833 13.0227 15.3408 14.0689L19.3344 18.0637C19.4229 18.1461 19.4938 18.2454 19.543 18.3558C19.5922 18.4662 19.6186 18.5854 19.6207 18.7063C19.6229 18.8271 19.6007 18.9471 19.5554 19.0592C19.5101 19.1713 19.4427 19.2731 19.3573 19.3585C19.2718 19.444 19.17 19.5114 19.058 19.5566C18.9459 19.6019 18.8259 19.6241 18.705 19.622C18.5842 19.6199 18.465 19.5934 18.3546 19.5442C18.2442 19.495 18.1448 19.4241 18.0624 19.3357L14.0676 15.3421C12.8335 16.3361 11.3433 16.9608 9.76925 17.144C8.19517 17.3271 6.60139 17.0613 5.17198 16.3771C3.74257 15.693 2.53584 14.6184 1.69117 13.2776C0.846493 11.9368 0.39833 10.3844 0.398438 8.79968Z"/>
</svg>
