<svg width="13" height="11" viewBox="0 0 13 11" fill="currentColor" xmlns="http://www.w3.org/2000/svg">
<path d="M6.06442 0.272787C6.25568 -0.0665351 6.74432 -0.0665349 6.93558 0.272787L8.45076 2.961C8.52211 3.08759 8.645 3.17687 8.78744 3.20561L11.8123 3.81594C12.1941 3.89298 12.3451 4.3577 12.0815 4.64445L9.99308 6.91618C9.89474 7.02316 9.8478 7.16763 9.86448 7.31198L10.2188 10.3774C10.2635 10.7643 9.86816 11.0515 9.51398 10.8894L6.70808 9.60523C6.57595 9.54476 6.42405 9.54476 6.29192 9.60523L3.48602 10.8894C3.13184 11.0515 2.73652 10.7643 2.78124 10.3774L3.13552 7.31198C3.1522 7.16763 3.10526 7.02316 3.00692 6.91618L0.918497 4.64445C0.654883 4.3577 0.805881 3.89298 1.1877 3.81594L4.21255 3.20561C4.355 3.17687 4.47789 3.08759 4.54924 2.961L6.06442 0.272787Z"/>
</svg>
