<svg width="28" height="25" viewBox="0 0 28 25" fill="currentColor" xmlns="http://www.w3.org/2000/svg">
<path d="M26.2101 0.693506L1.30177 10.4985C-0.379159 11.121 -0.379159 12.2104 0.996146 12.5217L7.26143 14.5449L9.70641 22.0154C10.012 22.7936 9.85923 23.1048 10.6233 23.1048C11.2345 23.1048 11.5402 22.7936 11.8458 22.4823C11.9986 22.3267 13.3739 20.9259 14.902 19.3696L21.3201 24.1943C22.5426 24.8168 23.3067 24.5055 23.6123 23.1048L27.891 2.71675C28.3494 1.00477 27.2798 0.0709695 26.2101 0.693506ZM23.001 5.36253L11.0817 16.4126L10.6233 21.5485L8.1783 14.078L22.237 5.05126C22.8482 4.58436 23.4595 4.89563 23.001 5.36253Z"/>
</svg>
