<svg width="37" height="22" viewBox="0 0 37 22" fill="currentColor" xmlns="http://www.w3.org/2000/svg">
<path d="M22.4046 10.5824C21.7281 10.3223 21.7281 9.32909 21.6861 8.63744C21.517 6.1738 22.3627 2.41263 21.3478 0.813548C20.6293 -0.138157 17.1613 -0.0510098 15.0477 0.0790196C14.455 0.166167 13.7365 0.294814 13.2291 0.554873C12.7217 0.814932 12.2142 1.24652 12.2142 1.63522C12.2142 2.19684 13.4835 2.11107 13.9476 2.8456C14.455 3.6244 14.455 5.30924 14.455 6.69254C14.455 8.29162 14.2006 10.4108 13.5674 10.4966C12.5945 10.5395 12.0451 9.54488 11.5377 8.81036C10.5228 7.38418 9.50798 5.6108 8.74617 3.88169C8.36594 2.97425 8.1535 1.97966 7.60413 1.59096C6.75843 0.985076 5.23616 0.942194 3.75584 0.985076C2.40271 1.02796 0.456919 0.855047 0.0766908 1.67672C-0.219644 2.58416 0.414972 3.44872 0.753254 4.18463C2.48661 8.03156 4.34716 11.404 6.63123 14.6022C8.74617 17.5846 10.7326 19.9625 14.6228 21.2157C15.7229 21.5615 20.5427 22.5561 21.5156 21.2157C21.8539 20.697 21.77 19.5295 21.9391 18.6649C22.1083 17.8004 22.3194 16.9358 23.1231 16.8929C23.7997 16.85 24.1799 17.4545 24.6035 17.8875C25.0689 18.3634 25.4492 18.7521 25.7874 19.185C26.5912 20.0067 27.4369 21.1299 28.4517 21.5629C29.8468 22.1688 32.0037 21.9959 34.0334 21.9087C35.6828 21.8659 36.8668 21.52 36.994 20.5255C37.0793 19.7467 36.2322 18.6234 35.7248 17.9747C34.4556 16.3756 33.8643 15.8997 32.4259 14.4293C31.7913 13.7805 30.9875 13.0889 30.9875 12.3115C30.9456 11.8356 31.3258 11.404 31.6641 10.9282C33.1444 8.68033 34.6247 7.08124 35.9778 4.74625C36.3581 4.0546 37.2471 2.45552 36.9088 1.67672C36.5286 0.812165 34.4136 1.07084 33.1024 1.07084C31.411 1.07084 29.2122 0.94081 28.7887 1.28663C27.9849 1.84825 27.6466 2.75707 27.2664 3.62163C26.4207 5.6108 25.2787 7.64147 24.0947 9.1548C23.6712 9.67353 22.8687 10.7539 22.4033 10.581L22.4046 10.5824Z"/>
</svg>
