<svg width="24" height="24" fill="currentColor" viewBox="0 0 487.125 487.125" xmlns="http://www.w3.org/2000/svg">
	<path d="m 459.5,168.562 c 3.5,3.5 9.1,3.5 12.5,0 l 12.5,-12.5 c 3.5,-3.5 3.5,-9.1 0,-12.5 l -28.3,-28.3 c -3.5,-3.5 -9.1,-3.5 -12.5,0 l -12.5,12.5 c -3.5,3.5 -3.5,9.1 0,12.5 l 1.2,1.2 -8.8,8.8 c -22.2,-17.6 -49.1,-29.3 -78.6,-32.7 v -16 h 9.7 c 4.9,0 8.8,-4 8.8,-8.8 v -26 c 0,-4.9 -4,-8.8 -8.8,-8.8 h -56.2 c -4.9,0 -8.8,4 -8.8,8.8 v 26 c 0,4.9 4,8.8 8.8,8.8 h 9.7 v 16 c -29.5,3.5 -56.5,15.2 -78.6,32.7 l -8.8,-8.8 1.2,-1.2 c 3.5,-3.5 3.5,-9.1 0,-12.5 l -12.5,-12.5 c -3.5,-3.5 -9.1,-3.5 -12.5,0 l -28.3,28.3 c -3.5,3.5 -3.5,9.1 0,12.5 l 12.5,12.5 c 3.5,3.5 9.1,3.5 12.5,0 l 1.2,-1.2 8.8,8.8 c -17.85677,22.61857 -29.56764,50.29829 -32.67329,80.45728 0,0 -42.96504,-0.25131 -147.493775,1.3916 -15.8672914,0.24939 -21.2418613,7.49308 -21.2597091,16.45418 -0.016323,8.19558 7.4176081,15.12588 19.3834511,15.12588 149.755843,0 123.025383,0.76895 149.443623,0 1.28188,11.91302 3.90849,23.43088 7.72443,34.39833 -23.74251,1.49571 -34.57205,0.10076 -117.695414,0 -1.641299,-0.002 -24.558717,-0.19275 -24.403768,15.87307 0.07257,7.52404 4.102148,15.25674 24.403768,15.25727 51.545264,10e-4 62.766814,0.18071 132.577204,0 7.36679,11.83907 16.27052,22.628 26.42943,32.0857 -32.03775,0.06 -16.6405,-0.22906 -102.34973,0 -2.51509,0.007 -24.344634,-1.06564 -24.344634,14.55505 0,10.21952 7.310974,14.99201 24.344634,15.45368 28.79614,0.78047 141.3263,0.0986 148.88504,0 18.46849,7.6961 38.71405,11.94796 59.92874,11.94796 86.2,0 156.4,-70.2 156.4,-156.4 0,-36.4 -12.6,-70 -33.5,-96.6 l 8.8,-8.8 z m -132.9,224.4 c -66.2,0 -120.1,-53.9 -120.1,-120.1 0,-66.2 53.9,-120.1 120.1,-120.1 66.2,0 120.1,53.9 120.1,120.1 0,66.2 -53.9,120.1 -120.1,120.1 z"/>
	<path d="M402.1,228.163c-2.6-4.3-8-6-12.5-3.7l-54.1,26.5c-6.7-2.7-14.5-2.4-21.2,1.5c-11.3,6.7-15.1,21.3-8.4,32.6,c6.7,11.3,21.3,15.1,32.6,8.4c6.7-4,10.7-10.7,11.5-17.8l49.3-34.7C403.5,238.062,404.7,232.562,402.1,228.163z M336.6,275.462,c-1.5,5.6-7.2,8.9-12.7,7.5c-5.6-1.5-8.9-7.2-7.5-12.7c1.5-5.6,7.2-8.9,12.7-7.5C334.7,264.163,338,269.962,336.6,275.462z"/>
	<path d="M360.4,213.262c4.7,2.7,10.7,1,13.3-3.7c2.7-4.7,1-10.7-3.7-13.3c-4.7-2.7-10.6-1-13.3,3.7c-1.8,3.2-1.6,6.9,0.1,9.8,C357.7,211.062,358.9,212.363,360.4,213.262z"/>
	<path d="M326,204.262c5.4,0,9.7-4.4,9.7-9.8c0-5.4-4.4-9.7-9.8-9.7s-9.7,4.4-9.7,9.8c0,1.8,0.5,3.5,1.3,4.9,C319.2,202.363,322.4,204.363,326,204.262z"/>
	<path d="M327.3,341.663L327.3,341.663c-5.4,0.1-9.7,4.5-9.7,9.9c0,1.8,0.5,3.4,1.3,4.8c1.7,2.9,4.9,4.9,8.5,4.8,c5.4-0.1,9.7-4.5,9.6-9.9C337.1,346.062,332.7,341.663,327.3,341.663z"/>
	<path d="M361.5,332.163c-4.6,2.7-6.2,8.7-3.4,13.3l0,0c2.7,4.7,8.7,6.2,13.4,3.4c4.6-2.7,6.2-8.7,3.4-13.3,C372.1,330.962,366.1,329.462,361.5,332.163z"/>
	<path d="M399.7,303.163c-4.7-2.6-10.7-1-13.3,3.7c-1.8,3.2-1.6,6.8,0.1,9.8c0.8,1.4,2.1,2.7,3.6,3.5c4.7,2.7,10.7,1,13.3-3.7,C406,311.763,404.4,305.763,399.7,303.163z"/>
	<path d="M257.8,273.763c0-5.4-4.5-9.7-9.8-9.7c-5.4,0.1-9.7,4.5-9.7,9.9c0,1.8,0.5,3.4,1.3,4.8c1.7,2.9,4.9,4.9,8.5,4.8,C253.6,283.562,257.9,279.163,257.8,273.763z"/>
	<path d="M254.1,304.562c-4.6,2.7-6.2,8.7-3.4,13.3l0,0c2.7,4.6,8.7,6.2,13.4,3.4c4.6-2.7,6.1-8.7,3.4-13.4,C264.7,303.362,258.7,301.763,254.1,304.562z"/>
	<path d="M395.3,272.362c0,1.8,0.5,3.4,1.4,4.9c1.7,2.9,4.9,4.8,8.5,4.8c5.4,0,9.7-4.5,9.7-9.8c0-5.4-4.4-9.7-9.8-9.7,C399.6,262.562,395.2,267.062,395.3,272.362z"/>
	<path d="M253.4,243.062c4.7,2.7,10.7,1,13.3-3.7l0,0c2.6-4.7,1-10.6-3.8-13.3c-4.7-2.6-10.6-1-13.3,3.7c-1.7,3.1-1.6,6.8,0.1,9.8,C250.6,240.962,251.8,242.163,253.4,243.062z"/>
	<path d="M291.5,213.962c0,0,0.1,0,0.1-0.1c0.1,0,0.1,0,0.1-0.1c0,0,0,0,0.1,0c4.6-2.7,6.1-8.7,3.4-13.3c-2.7-4.7-8.7-6.2-13.4-3.5,c0,0-0.1,0-0.1,0.1c-0.1,0-0.1,0.1-0.2,0.1c-4.6,2.7-6.2,8.7-3.4,13.3l0,0C280.9,215.163,286.9,216.663,291.5,213.962z"/>
	<path d="M292.8,332.862c-4.7-2.7-10.7-1-13.3,3.7c-1.8,3.2-1.6,6.9,0.1,9.8c0.8,1.4,2.1,2.7,3.6,3.6c4.7,2.6,10.7,0.9,13.3-3.7,C299.2,341.462,297.5,335.562,292.8,332.862z"/>
</svg>
