<svg width="26" height="29" viewBox="0 0 26 29" fill="currentColor" xmlns="http://www.w3.org/2000/svg">
<path d="M13 0.5C5.80667 0.5 0 6.3625 0 13.625C0 16.6 0.953333 19.4 2.77333 21.675L0.953333 27.275C0.866667 27.625 0.953333 27.975 1.21333 28.2375C1.3 28.4125 1.56 28.5 1.73333 28.5C1.82 28.5 1.99333 28.5 2.08 28.4125L8.06 25.7C9.62 26.4 11.2667 26.75 13 26.75C20.1933 26.75 26 20.8875 26 13.625C26 6.3625 20.1933 0.5 13 0.5ZM20.54 18.4375C20.1933 19.4875 18.8933 20.3625 17.7667 20.5375C17.5067 20.625 17.2467 20.625 16.9 20.625C16.2067 20.625 15.1667 20.45 13.3467 19.6625C11.2667 18.7875 9.18667 16.95 7.54 14.5875V14.5C7.02 13.7125 6.06667 12.225 6.06667 10.65C6.06667 8.725 7.02 7.7625 7.36667 7.325C7.8 6.8875 8.40667 6.625 9.1 6.625C9.27333 6.625 9.36 6.625 9.53333 6.625C10.14 6.625 10.5733 6.8 11.0067 7.675L11.3533 8.375C11.6133 9.075 11.96 9.8625 12.0467 9.95C12.3067 10.475 12.3067 10.9125 12.0467 11.35C11.96 11.6125 11.7867 11.7875 11.6133 11.9625C11.5267 12.1375 11.44 12.225 11.3533 12.225C11.2667 12.3125 11.2667 12.3125 11.18 12.4C11.44 12.8375 11.96 13.625 12.6533 14.2375C13.6933 15.2 14.4733 15.4625 14.9067 15.6375C15.08 15.4625 15.2533 15.1125 15.5133 14.85L15.6 14.675C16.0333 14.0625 16.7267 13.8875 17.42 14.15C17.7667 14.325 19.6733 15.2 19.6733 15.2L19.8467 15.2875C20.1067 15.4625 20.4533 15.55 20.6267 15.9C20.9733 16.6875 20.7133 17.825 20.54 18.4375Z"/>
</svg>
