<svg width="39" height="27" viewBox="0 0 39 27" fill="currentColor" xmlns="http://www.w3.org/2000/svg">
<path fill-rule="evenodd" clip-rule="evenodd" d="M15.3252 18.4875V7.66472C19.1471 9.47262 22.1071 11.2191 25.608 13.102C22.7205 14.7118 19.1471 16.518 15.3252 18.4875ZM36.6246 2.28205C35.9653 1.40887 34.8417 0.729171 33.6454 0.504146C30.1293 -0.167093 8.19355 -0.169003 4.67932 0.504146C3.72003 0.68493 2.86581 1.12191 2.132 1.80085C-0.959906 4.68579 0.0089517 20.1568 0.754222 22.6629C1.06761 23.7477 1.47275 24.53 1.98298 25.0435C2.64034 25.7224 3.54038 26.1899 4.5742 26.3995C7.46928 27.0015 22.3842 27.3381 33.5843 26.4899C34.6162 26.3092 35.5296 25.8266 36.25 25.1188C39.1088 22.2454 38.9139 5.90554 36.6246 2.28205Z"/>
</svg>
