<svg xmlns="http://www.w3.org/2000/svg" width="225" height="52" viewBox="0 0 225 52" fill="none" m_init="2372567202505281134">
    <path d="M196.511 33.0801V22.0386H197.703V23.3143H197.849C197.94 23.1749 198.065 22.9971 198.226 22.781C198.389 22.5614 198.623 22.3663 198.926 22.1955C199.233 22.0212 199.648 21.9341 200.17 21.9341C200.846 21.9341 201.442 22.1031 201.958 22.4412C202.474 22.7793 202.877 23.2585 203.166 23.8789C203.455 24.4993 203.6 25.2312 203.6 26.0746C203.6 26.9251 203.455 27.6622 203.166 28.2861C202.877 28.9065 202.476 29.3874 201.964 29.729C201.451 30.0671 200.86 30.2361 200.191 30.2361C199.675 30.2361 199.262 30.1507 198.952 29.9799C198.642 29.8057 198.403 29.6088 198.236 29.3892C198.069 29.1661 197.94 28.9814 197.849 28.835H197.745V33.0801H196.511ZM197.724 26.0537C197.724 26.6602 197.813 27.1952 197.99 27.6587C198.168 28.1188 198.428 28.4795 198.769 28.7409C199.111 28.9988 199.529 29.1278 200.024 29.1278C200.54 29.1278 200.97 28.9918 201.315 28.72C201.664 28.4447 201.925 28.0752 202.099 27.6117C202.277 27.1446 202.366 26.6253 202.366 26.0537C202.366 25.4891 202.279 24.9802 202.105 24.5272C201.934 24.0706 201.674 23.7099 201.326 23.445C200.981 23.1766 200.547 23.0424 200.024 23.0424C199.522 23.0424 199.1 23.1696 198.759 23.4241C198.417 23.675 198.159 24.027 197.985 24.4801C197.811 24.9297 197.724 25.4543 197.724 26.0537Z" fill="url(#paint0_linear_2647_2537)"/>
    <path d="M205.989 33.0801C205.78 33.0801 205.593 33.0627 205.43 33.0278C205.266 32.9965 205.153 32.9651 205.09 32.9337L205.404 31.8463C205.703 31.923 205.968 31.9509 206.198 31.93C206.428 31.9091 206.632 31.8062 206.81 31.6215C206.991 31.4403 207.157 31.1458 207.307 30.738L207.537 30.1106L204.567 22.0386H205.905L208.122 28.4377H208.206L210.422 22.0386H211.761L208.352 31.2399C208.199 31.6546 208.009 31.9979 207.782 32.2698C207.556 32.5451 207.293 32.749 206.993 32.8815C206.697 33.0139 206.362 33.0801 205.989 33.0801Z" fill="url(#paint1_linear_2647_2537)"/>
    <path d="M215.25 27C215.25 33.2132 210.213 38.25 204 38.25C197.787 38.25 192.75 33.2132 192.75 27C192.75 20.7868 197.787 15.75 204 15.75C210.213 15.75 215.25 20.7868 215.25 27Z" stroke="url(#paint2_linear_2647_2537)" stroke-width="1.5"/>
    <path d="M44 31.2099V19.1647H51.5106V20.7292H45.8174V24.0228H48.5111C49.4051 24.0228 50.1638 24.1679 50.7872 24.458C51.4146 24.7482 51.8929 25.1579 52.2223 25.6872C52.5556 26.2166 52.7222 26.84 52.7222 27.5575C52.7222 28.2751 52.5556 28.9083 52.2223 29.4573C51.8929 30.0062 51.4146 30.4355 50.7872 30.7453C50.1638 31.0551 49.4051 31.2099 48.5111 31.2099H44ZM45.8174 29.6808H48.5111C49.0287 29.6808 49.4659 29.5788 49.8227 29.3749C50.1834 29.171 50.4559 28.9064 50.6402 28.5809C50.8284 28.2555 50.9225 27.9065 50.9225 27.534C50.9225 26.9929 50.7147 26.5283 50.2991 26.1401C49.8834 25.748 49.2874 25.552 48.5111 25.552H45.8174V29.6808Z" fill="url(#paint3_linear_2647_2537)"/>
    <path d="M55.8865 31.2099H53.9573L58.292 19.1647H60.3917L64.7263 31.2099H62.7972L59.3918 21.3526H59.2977L55.8865 31.2099ZM56.2099 26.493H62.4678V28.0222H56.2099V26.493Z" fill="url(#paint4_linear_2647_2537)"/>
    <path d="M70.4946 31.3746C69.6868 31.3746 68.9654 31.2354 68.3302 30.957C67.6989 30.6786 67.199 30.2924 66.8304 29.7984C66.4658 29.3004 66.2697 28.724 66.2423 28.0692H68.089C68.1126 28.426 68.2322 28.7358 68.4478 28.9985C68.6674 29.2573 68.9536 29.4573 69.3065 29.5984C69.6594 29.7396 70.0515 29.8101 70.4828 29.8101C70.9572 29.8101 71.3768 29.7278 71.7414 29.5631C72.11 29.3984 72.3982 29.1691 72.606 28.875C72.8138 28.577 72.9177 28.2339 72.9177 27.8457C72.9177 27.4419 72.8138 27.087 72.606 26.7812C72.4021 26.4714 72.1022 26.2283 71.7062 26.0519C71.3141 25.8754 70.8396 25.7872 70.2828 25.7872H69.2653V24.3051H70.2828C70.7298 24.3051 71.1219 24.2247 71.4591 24.0639C71.8003 23.9032 72.0669 23.6797 72.259 23.3935C72.4511 23.1033 72.5472 22.7641 72.5472 22.376C72.5472 22.0035 72.4629 21.68 72.2943 21.4055C72.1296 21.1271 71.8944 20.9095 71.5885 20.7527C71.2866 20.5958 70.9298 20.5174 70.5181 20.5174C70.126 20.5174 69.7594 20.59 69.4183 20.735C69.0811 20.8762 68.8066 21.0801 68.5949 21.3467C68.3831 21.6094 68.2694 21.9251 68.2537 22.2936H66.4952C66.5148 21.6427 66.7069 21.0703 67.0716 20.5762C67.4401 20.0822 67.9263 19.696 68.5302 19.4176C69.134 19.1392 69.8045 19 70.5416 19C71.3141 19 71.9806 19.151 72.5413 19.4529C73.1059 19.7509 73.5412 20.1488 73.847 20.6468C74.1568 21.1448 74.3097 21.6898 74.3058 22.2819C74.3097 22.9563 74.1215 23.5287 73.7411 23.9993C73.3647 24.4698 72.8628 24.7854 72.2355 24.9462V25.0403C73.0354 25.1618 73.6549 25.4794 74.094 25.9931C74.5371 26.5067 74.7567 27.1439 74.7528 27.9046C74.7567 28.5672 74.5724 29.1612 74.1999 29.6866C73.8313 30.212 73.3275 30.6257 72.6884 30.9276C72.0492 31.2256 71.318 31.3746 70.4946 31.3746Z" fill="url(#paint5_linear_2647_2537)"/>
    <path d="M78.1581 31.2099H76.229L80.5637 19.1647H82.6633L86.998 31.2099H85.0689L81.6635 21.3526H81.5694L78.1581 31.2099ZM78.4816 26.493H84.7395V28.0222H78.4816V26.493Z" fill="url(#paint6_linear_2647_2537)"/>
    <path d="M103.807 29.6043L103.648 34.0566H101.837V31.2099H100.99V29.6043H103.807ZM93.1206 31.2099V19.1647H94.8615V29.6337H100.672V19.1647H102.419V31.2099H93.1206Z" fill="url(#paint7_linear_2647_2537)"/>
    <path d="M105.801 31.2099V19.1647H110.212C111.067 19.1647 111.775 19.3058 112.335 19.5881C112.896 19.8665 113.316 20.2449 113.594 20.7233C113.872 21.1977 114.012 21.7329 114.012 22.3289C114.012 22.8308 113.919 23.2543 113.735 23.5993C113.551 23.9404 113.304 24.2149 112.994 24.4227C112.688 24.6266 112.351 24.7756 111.982 24.8697V24.9873C112.382 25.0069 112.773 25.1363 113.153 25.3755C113.537 25.6108 113.855 25.946 114.106 26.3812C114.357 26.8165 114.482 27.3458 114.482 27.9692C114.482 28.5848 114.337 29.1377 114.047 29.6278C113.761 30.114 113.318 30.5002 112.718 30.7865C112.118 31.0688 111.351 31.2099 110.418 31.2099H105.801ZM107.618 29.6513H110.242C111.112 29.6513 111.735 29.4827 112.112 29.1455C112.488 28.8083 112.677 28.3868 112.677 27.881C112.677 27.5007 112.58 27.1517 112.388 26.8341C112.196 26.5165 111.922 26.2636 111.565 26.0754C111.212 25.8872 110.792 25.7931 110.306 25.7931H107.618V29.6513ZM107.618 24.3757H110.053C110.461 24.3757 110.828 24.2972 111.153 24.1404C111.483 23.9836 111.743 23.764 111.935 23.4817C112.131 23.1955 112.23 22.8582 112.23 22.4701C112.23 21.9721 112.055 21.5545 111.706 21.2173C111.357 20.8801 110.822 20.7115 110.1 20.7115H107.618V24.3757Z" fill="url(#paint8_linear_2647_2537)"/>
    <path d="M116.638 31.2099V19.1647H124.189V20.7292H118.455V24.3992H123.795V25.9578H118.455V29.6455H124.26V31.2099H116.638Z" fill="url(#paint9_linear_2647_2537)"/>
    <path d="M126.023 20.7292V19.1647H135.345V20.7292H131.587V31.2099H129.775V20.7292H126.023Z" fill="url(#paint10_linear_2647_2537)"/>
    <path d="M147.351 25.1873C147.351 26.4734 147.115 27.5791 146.645 28.5045C146.174 29.4259 145.529 30.1356 144.71 30.6336C143.894 31.1276 142.967 31.3746 141.928 31.3746C140.885 31.3746 139.954 31.1276 139.134 30.6336C138.319 30.1356 137.676 29.4239 137.205 28.4986C136.735 27.5732 136.499 26.4695 136.499 25.1873C136.499 23.9012 136.735 22.7975 137.205 21.876C137.676 20.9507 138.319 20.241 139.134 19.7469C139.954 19.249 140.885 19 141.928 19C142.967 19 143.894 19.249 144.71 19.7469C145.529 20.241 146.174 20.9507 146.645 21.876C147.115 22.7975 147.351 23.9012 147.351 25.1873ZM145.551 25.1873C145.551 24.2071 145.392 23.3817 145.075 22.7112C144.761 22.0368 144.33 21.5271 143.781 21.182C143.236 20.8331 142.618 20.6586 141.928 20.6586C141.234 20.6586 140.614 20.8331 140.069 21.182C139.524 21.5271 139.093 22.0368 138.776 22.7112C138.462 23.3817 138.305 24.2071 138.305 25.1873C138.305 26.1676 138.462 26.9949 138.776 27.6693C139.093 28.3398 139.524 28.8495 140.069 29.1985C140.614 29.5435 141.234 29.716 141.928 29.716C142.618 29.716 143.236 29.5435 143.781 29.1985C144.33 28.8495 144.761 28.3398 145.075 27.6693C145.392 26.9949 145.551 26.1676 145.551 25.1873Z" fill="url(#paint11_linear_2647_2537)"/>
    <path d="M149.617 31.2099V19.1647H154.028C154.882 19.1647 155.59 19.3058 156.151 19.5881C156.712 19.8665 157.131 20.2449 157.41 20.7233C157.688 21.1977 157.827 21.7329 157.827 22.3289C157.827 22.8308 157.735 23.2543 157.551 23.5993C157.366 23.9404 157.119 24.2149 156.81 24.4227C156.504 24.6266 156.167 24.7756 155.798 24.8697V24.9873C156.198 25.0069 156.588 25.1363 156.968 25.3755C157.353 25.6108 157.67 25.946 157.921 26.3812C158.172 26.8165 158.298 27.3458 158.298 27.9692C158.298 28.5848 158.153 29.1377 157.862 29.6278C157.576 30.114 157.133 30.5002 156.533 30.7865C155.933 31.0688 155.167 31.2099 154.234 31.2099H149.617ZM151.434 29.6513H154.057C154.928 29.6513 155.551 29.4827 155.927 29.1455C156.304 28.8083 156.492 28.3868 156.492 27.881C156.492 27.5007 156.396 27.1517 156.204 26.8341C156.012 26.5165 155.737 26.2636 155.38 26.0754C155.028 25.8872 154.608 25.7931 154.122 25.7931H151.434V29.6513ZM151.434 24.3757H153.869C154.277 24.3757 154.643 24.2972 154.969 24.1404C155.298 23.9836 155.559 23.764 155.751 23.4817C155.947 23.1955 156.045 22.8582 156.045 22.4701C156.045 21.9721 155.871 21.5545 155.522 21.2173C155.173 20.8801 154.637 20.7115 153.916 20.7115H151.434V24.3757Z" fill="url(#paint12_linear_2647_2537)"/>
    <path d="M164.672 31.2099V29.8925L168.748 25.6696C169.183 25.2108 169.542 24.8089 169.824 24.4639C170.11 24.1149 170.324 23.7836 170.465 23.4699C170.606 23.1562 170.677 22.823 170.677 22.4701C170.677 22.0701 170.583 21.7251 170.394 21.4349C170.206 21.1409 169.949 20.9154 169.624 20.7586C169.298 20.5978 168.932 20.5174 168.524 20.5174C168.093 20.5174 167.716 20.6056 167.395 20.7821C167.073 20.9585 166.826 21.2075 166.654 21.529C166.481 21.8506 166.395 22.227 166.395 22.6583H164.66C164.66 21.9251 164.829 21.284 165.166 20.735C165.503 20.1861 165.966 19.7607 166.554 19.4588C167.142 19.1529 167.81 19 168.559 19C169.316 19 169.983 19.151 170.559 19.4529C171.139 19.7509 171.592 20.1587 171.918 20.6762C172.243 21.1899 172.406 21.7702 172.406 22.4171C172.406 22.8641 172.322 23.3013 172.153 23.7287C171.988 24.1561 171.7 24.6325 171.288 25.1579C170.877 25.6794 170.304 26.3126 169.571 27.0576L167.177 29.5631V29.6513H172.6V31.2099H164.672Z" fill="url(#paint13_linear_2647_2537)"/>
    <path d="M174.317 28.8573V27.387L179.522 19.1647H180.681V21.3291H179.946L176.223 27.2223V27.3164H183.357V28.8573H174.317ZM180.028 31.2099V28.4104L180.04 27.7399V19.1647H181.763V31.2099H180.028Z" fill="url(#paint14_linear_2647_2537)"/>
    <path d="M186.136 31.3217C185.815 31.3217 185.538 31.208 185.307 30.9806C185.075 30.7492 184.96 30.4708 184.96 30.1454C184.96 29.8239 185.075 29.5494 185.307 29.322C185.538 29.0906 185.815 28.975 186.136 28.975C186.458 28.975 186.734 29.0906 186.965 29.322C187.197 29.5494 187.312 29.8239 187.312 30.1454C187.312 30.361 187.258 30.5591 187.148 30.7394C187.042 30.9159 186.901 31.057 186.724 31.1629C186.548 31.2688 186.352 31.3217 186.136 31.3217Z" fill="url(#paint15_linear_2647_2537)"/>
    <path d="M24.4133 35.3039C24.4119 35.3048 24.4104 35.3052 24.4091 35.3058C24.3937 35.3118 24.3784 35.3178 24.3631 35.3238C22.1935 36.2322 21.571 38.3473 21.4321 38.9683C21.4214 39.0156 21.3549 39.0156 21.3438 38.9683C21.1466 38.1347 21.3154 36.0447 21.7073 35.1261C22.1307 34.1344 23.5965 32.6709 23.9549 32.2481C24.2492 31.9004 24.8182 30.4129 25.012 29.8921C25.0292 29.8461 25.0975 29.8559 25.0998 29.9046C25.1426 30.7029 24.7898 32.2305 24.695 32.625C24.6856 32.6621 24.7252 32.6932 24.7595 32.676C28.4997 30.818 30.4823 27.7273 30.9374 26.9494C30.9621 26.9076 31.0262 26.929 31.0216 26.9772C30.4154 33.3778 25.6568 34.644 24.4133 35.3039ZM26.9031 30.489C26.9031 30.4913 26.9031 30.4927 26.9026 30.4945C26.8993 30.5317 26.8398 30.9197 25.9422 31.3374C25.9096 31.3862 26.382 30.0039 26.5121 29.5319C26.6037 29.201 26.6953 28.6779 26.7696 28.3841C26.7827 28.3325 26.858 28.3418 26.8589 28.3943L26.9031 30.489ZM28.1073 29.4836C28.1078 29.4938 28.1046 29.5041 28.0985 29.5124C28.0213 29.6136 27.5081 30.275 27.1471 30.4101C27.1025 30.4402 27.6583 29.1754 27.9526 27.7264C27.9632 27.6735 28.0399 27.6795 28.0423 27.7333L28.1073 29.4836ZM20.8319 31.6763V27.2729C20.8319 27.2608 20.8366 27.2497 20.8454 27.2409L26.5963 21.4989C26.6139 21.4813 26.6427 21.4813 26.6604 21.4989L28.6968 23.5323C28.8074 23.6428 28.8074 23.822 28.6968 23.9324L20.9096 31.7083C20.8807 31.7366 20.8319 31.7166 20.8319 31.6763ZM19.9938 25.8535L14.5483 20.417C14.5307 20.3989 14.5307 20.3706 14.5483 20.3525L19.8306 15.0788C19.9407 14.9683 20.1202 14.9683 20.2304 15.0788L21.2582 16.105C21.2763 16.1227 21.2763 16.1515 21.2582 16.1691L17.1098 20.3111C17.0921 20.3292 17.0921 20.3576 17.1098 20.3752L20.0282 23.2896C20.0463 23.3072 20.0747 23.3072 20.0923 23.2896L22.9652 20.4211C22.9828 20.4035 22.9828 20.3747 22.9652 20.3571L21.5664 18.9609C21.5488 18.9433 21.5199 18.9433 21.5023 18.9609L20.8872 19.575C20.8691 19.5926 20.8691 19.6214 20.8872 19.6391L21.5604 20.3111C21.578 20.3292 21.578 20.3576 21.5604 20.3752L20.0579 21.8753C20.0403 21.893 20.0115 21.893 19.9938 21.8753L18.5495 20.4328C18.5313 20.4151 18.5313 20.3863 18.5495 20.3687L22.0066 16.9164C22.0248 16.8987 22.0531 16.8987 22.0713 16.9164L25.508 20.3483C25.5257 20.3659 25.5257 20.3947 25.508 20.4123L25.2314 20.6885L20.0579 25.8535C20.0403 25.8712 20.0115 25.8712 19.9938 25.8535ZM19.3002 31.7468C19.3002 31.7872 19.2514 31.8076 19.2226 31.7788L11.3315 23.8999C11.239 23.8076 11.239 23.6572 11.332 23.5644L13.4132 21.4864C13.4308 21.4687 13.4597 21.4687 13.4773 21.4864L19.2867 27.2868C19.2956 27.2956 19.3002 27.3068 19.3002 27.3188V31.7468ZM13.158 30.489L13.2021 28.3943C13.203 28.3418 13.2784 28.3325 13.2913 28.3841C13.3662 28.6779 13.4573 29.201 13.5489 29.5319C13.6791 30.0039 14.1518 31.3862 14.1188 31.3374C13.2212 30.9197 13.1621 30.5317 13.1584 30.4945C13.158 30.4927 13.158 30.4913 13.158 30.489ZM11.9535 29.4836L12.019 27.7333C12.0209 27.6795 12.0976 27.6735 12.1083 27.7264C12.4025 29.1754 12.9585 30.4402 12.9139 30.4101C12.5532 30.275 12.0395 29.6136 11.9628 29.5124C11.9563 29.5041 11.953 29.4938 11.9535 29.4836ZM11.2525 28.7837L11.2646 27.912C11.265 27.86 11.3385 27.8498 11.3533 27.8995C11.5179 28.4648 11.8359 29.4084 11.8224 29.4344C11.8075 29.4646 11.3394 28.9048 11.2632 28.8129C11.2562 28.8046 11.2525 28.7944 11.2525 28.7837ZM18.7173 38.9683C18.7061 39.0156 18.6396 39.0156 18.6289 38.9683C18.49 38.3473 17.8675 36.2322 15.6979 35.3238C15.6826 35.3178 15.6673 35.3118 15.6524 35.3058C15.6505 35.3052 15.6496 35.3048 15.6482 35.3039C14.4043 34.644 9.64544 33.3778 9.03925 26.9772C9.03461 26.929 9.09922 26.9076 9.12339 26.9494C9.5785 27.7273 11.5611 30.818 15.3014 32.676C15.3358 32.6932 15.3754 32.6621 15.3661 32.625C15.2712 32.2305 14.9183 30.7029 14.9612 29.9046C14.9639 29.8559 15.0318 29.8461 15.049 29.8921C15.2428 30.4129 15.8119 31.9004 16.1061 32.2481C16.4645 32.6709 17.9302 34.1344 18.3537 35.1261C18.7461 36.0447 18.9143 38.1347 18.7173 38.9683ZM28.7967 27.912L28.8084 28.7837C28.8084 28.7944 28.8046 28.8046 28.7977 28.8129C28.7214 28.9048 28.2533 29.4646 28.2384 29.4344C28.2254 29.4084 28.5429 28.4648 28.708 27.8995C28.7224 27.8498 28.7958 27.86 28.7967 27.912ZM20.0305 13.4251C12.522 13.4251 6.43457 19.5031 6.43457 27C6.43457 34.4973 12.522 40.5747 20.0305 40.5747C27.5393 40.5747 33.6262 34.4973 33.6262 27C33.6262 19.5031 27.5393 13.4251 20.0305 13.4251Z" fill="url(#paint16_linear_2647_2537)"/>
    <path d="M20.0309 7.55696C9.29339 7.55696 0.557827 16.2791 0.557827 27.0002C0.557827 37.7209 9.29339 46.443 20.0309 46.443C30.7684 46.443 39.504 37.7209 39.504 27.0002C39.504 16.2791 30.7684 7.55696 20.0309 7.55696ZM20.0309 47C17.3269 47 14.7036 46.4712 12.2339 45.4282C9.84861 44.4208 7.70647 42.9788 5.86694 41.1422C4.02741 39.3055 2.58316 37.1666 1.57428 34.7852C0.529657 32.3192 0 29.7001 0 27.0002C0 24.3003 0.529657 21.6807 1.57428 19.2152C2.58316 16.8332 4.02741 14.6945 5.86694 12.8579C7.70647 11.0213 9.84861 9.57922 12.2339 8.57204C14.7036 7.52912 17.3269 7 20.0309 7C22.7349 7 25.3582 7.52912 27.8277 8.57204C30.2134 9.57922 32.3554 11.0213 34.1949 12.8579C36.0343 14.6945 37.4786 16.8332 38.4873 19.2152C39.5323 21.6807 40.0618 24.3003 40.0618 27.0002C40.0618 29.7001 39.5323 32.3192 38.4873 34.7852C37.4786 37.1666 36.0343 39.3055 34.1949 41.1422C32.3554 42.9788 30.2134 44.4208 27.8277 45.4282C25.3582 46.4712 22.7349 47 20.0309 47Z" fill="url(#paint17_linear_2647_2537)"/>
    <path d="M20.032 13.0152C12.3091 13.0152 6.02599 19.2886 6.02599 27C6.02599 34.7108 12.3091 40.9842 20.032 40.9842C27.7551 40.9842 34.0382 34.7108 34.0382 27C34.0382 19.2886 27.7551 13.0152 20.032 13.0152ZM20.032 41.2627C16.2163 41.2627 12.6291 39.7791 9.93104 37.0852C7.23296 34.391 5.74707 30.8097 5.74707 27C5.74707 23.1902 7.23296 19.6084 9.93104 16.9145C12.6291 14.2206 16.2163 12.7367 20.032 12.7367C23.8476 12.7367 27.4348 14.2206 30.1329 16.9145C32.8309 19.6084 34.3171 23.1902 34.3171 27C34.3171 30.8097 32.8309 34.391 30.1329 37.0852C27.4348 39.7791 23.8476 41.2627 20.032 41.2627Z" fill="url(#paint18_linear_2647_2537)"/>
    <path d="M5.99539 34.6677C5.99539 35.173 5.58525 35.5825 5.07924 35.5825C4.57328 35.5825 4.16309 35.173 4.16309 34.6677C4.16309 34.1627 4.57328 33.7529 5.07924 33.7529C5.58525 33.7529 5.99539 34.1627 5.99539 34.6677Z" fill="url(#paint19_linear_2647_2537)"/>
    <path d="M35.8987 34.6677C35.8987 35.173 35.4882 35.5825 34.9824 35.5825C34.4762 35.5825 34.0662 35.173 34.0662 34.6677C34.0662 34.1627 34.4762 33.7529 34.9824 33.7529C35.4882 33.7529 35.8987 34.1627 35.8987 34.6677Z" fill="url(#paint20_linear_2647_2537)"/>
    <path d="M4.21791 27.7527L4.20573 27.2287C4.20024 26.9929 3.98357 26.8081 3.75276 26.8587C3.58067 26.8963 3.49755 27.0412 3.50336 27.2927L3.51443 27.7689C3.5147 27.7815 3.52489 27.7912 3.53716 27.7908L4.19615 27.7754C4.20842 27.7754 4.21814 27.7652 4.21791 27.7527ZM5.0852 28.9084L1.25779 28.9971C1.24551 28.9971 1.23529 28.9873 1.23506 28.9753L1.16993 26.1676C1.16965 26.1556 1.17936 26.1453 1.19164 26.1449L1.95843 26.1272C1.9707 26.1268 1.98089 26.1365 1.98116 26.1491L2.01956 27.8037C2.01984 27.8158 2.03002 27.8256 2.04229 27.8256L2.69845 27.8102C2.71072 27.8098 2.72044 27.8 2.72016 27.7875L2.70575 27.1669C2.69747 26.8082 2.73066 26.5273 2.80541 26.3245C2.88016 26.1212 3.00554 25.9583 3.18149 25.8353C3.35744 25.7123 3.57305 25.6478 3.82835 25.6417C4.04014 25.6371 4.24738 25.6803 4.45006 25.7722C4.65274 25.8636 4.80405 26.0247 4.90395 26.2544C5.00395 26.4846 5.05666 26.7186 5.06215 26.9567L5.10696 28.8857C5.10719 28.8977 5.09748 28.908 5.0852 28.9084Z" fill="url(#paint21_linear_2647_2537)"/>
    <path d="M4.15103 22.2323L4.32782 21.6934C4.33237 21.6795 4.32238 21.6646 4.30764 21.6642L3.25137 21.6173C3.22888 21.6164 3.21935 21.6456 3.23803 21.6581L4.11756 22.2439C4.12978 22.2518 4.14642 22.2462 4.15103 22.2323ZM5.98213 21.7589L5.22217 21.7305C5.21227 21.7301 5.20329 21.7366 5.20023 21.7459L4.8877 22.6988C4.88463 22.708 4.88807 22.7183 4.89602 22.7238L5.52205 23.1629C5.53005 23.1685 5.53344 23.1787 5.53042 23.188L5.24457 24.0596C5.23993 24.0736 5.22282 24.0791 5.21059 24.0708L1.94008 21.7598C1.93209 21.7542 1.92874 21.744 1.93176 21.7347L2.31272 20.573C2.31574 20.5637 2.32443 20.5576 2.33415 20.5576L6.34612 20.6078C6.36113 20.6082 6.37169 20.6231 6.36699 20.637L6.00407 21.7435C6.001 21.7528 5.99203 21.7593 5.98213 21.7589Z" fill="url(#paint22_linear_2647_2537)"/>
    <path d="M6.12955 18.5546L6.67177 17.6648C6.67781 17.655 6.69069 17.6518 6.70101 17.6569C6.86427 17.7405 7.00191 17.7753 7.11395 17.7623C7.23021 17.7488 7.33764 17.6773 7.43628 17.5483C7.63701 17.2851 7.61856 17.0633 7.38087 16.8827C7.17182 16.7235 6.98639 16.7495 6.82471 16.9611L6.67474 17.1575C6.6673 17.1672 6.65336 17.1691 6.64355 17.1617L6.13745 16.7764C6.12769 16.769 6.12578 16.7551 6.13322 16.7453L6.26427 16.574C6.40763 16.3861 6.37481 16.2125 6.16572 16.0533C5.96717 15.9024 5.77212 15.9521 5.58059 16.2027C5.49459 16.3155 5.44945 16.4237 5.44522 16.5276C5.44113 16.6274 5.50491 16.749 5.63651 16.8929C5.6447 16.9017 5.64456 16.9157 5.63577 16.924L4.97069 17.5539C4.962 17.5622 4.94805 17.5618 4.93945 17.5539C4.3798 17.0145 4.37957 16.3786 4.93871 15.6467C5.21507 15.2846 5.51616 15.0354 5.84184 14.8985C6.16753 14.7615 6.47178 14.801 6.75456 15.0164C7.03655 15.2308 7.1311 15.5344 7.03817 15.9266C7.03357 15.9461 7.05435 15.9609 7.07146 15.9507C7.48026 15.7001 7.8462 15.6977 8.16924 15.9437C8.45053 16.1577 8.5938 16.4571 8.599 16.8409C8.6043 17.2248 8.44634 17.6272 8.12517 18.0477C7.82352 18.4427 7.49685 18.6919 7.14514 18.7959C6.79923 18.898 6.46267 18.8279 6.13541 18.5847C6.12616 18.5778 6.12355 18.5648 6.12955 18.5546Z" fill="url(#paint23_linear_2647_2537)"/>
    <path d="M10.5046 13.4566L10.9772 13.1419C10.9894 13.134 10.9905 13.1164 10.9793 13.1066L10.1778 12.4183C10.1607 12.4034 10.1351 12.4206 10.1422 12.4419L10.4712 13.4454C10.4758 13.4594 10.4924 13.4649 10.5046 13.4566ZM12.2373 14.2141L11.6573 13.723C11.6497 13.717 11.6388 13.716 11.6305 13.7216L10.7951 14.2781C10.7869 14.2837 10.7833 14.2939 10.7861 14.3032L11.0068 15.0342C11.0096 15.0435 11.006 15.0537 10.9978 15.0593L10.2337 15.568C10.2213 15.5763 10.2043 15.5703 10.2001 15.5559L9.05852 11.7211C9.05578 11.7118 9.05941 11.7021 9.06754 11.6965L10.0859 11.0179C10.094 11.0128 10.1046 11.0133 10.1122 11.0193L13.2357 13.5336C13.2474 13.5434 13.2466 13.5615 13.2341 13.5694L12.2641 14.2159C12.2558 14.2215 12.2449 14.2206 12.2373 14.2141Z" fill="url(#paint24_linear_2647_2537)"/>
    <path d="M17.7848 12.1154L17.6221 8.3168C17.6213 8.29916 17.6352 8.28384 17.6531 8.28292L18.742 8.2365C18.7599 8.23557 18.7751 8.2495 18.7758 8.2676L18.8995 11.1551C18.9002 11.1727 18.9154 11.1866 18.9333 11.1857L19.7019 11.1532C19.7198 11.1523 19.7337 11.137 19.7329 11.1193L19.6092 8.23186C19.6085 8.21422 19.6224 8.1989 19.6403 8.19844L20.7292 8.15156C20.7471 8.1511 20.7622 8.16502 20.763 8.18266L20.8867 11.0706C20.8874 11.0882 20.9022 11.1021 20.9199 11.1017L21.4669 11.0878L20.6179 12.4853C20.6013 12.5127 20.5593 12.502 20.5577 12.47L20.5375 12.0625C20.5366 12.0448 20.5215 12.0309 20.5037 12.0318L17.8186 12.1465C17.8007 12.1474 17.7855 12.1335 17.7848 12.1154Z" fill="url(#paint25_linear_2647_2537)"/>
    <path d="M24.7872 10.3146C24.7835 10.3262 24.79 10.3388 24.8018 10.3425L25.306 10.4994C25.4378 10.5407 25.5413 10.536 25.6163 10.4864C25.6913 10.4367 25.7406 10.3736 25.7643 10.2979C25.8285 10.0923 25.7342 9.95028 25.4814 9.87184L24.9962 9.72053C24.9844 9.71682 24.9719 9.72331 24.9683 9.73492L24.7872 10.3146ZM24.3326 11.7697C24.3289 11.7813 24.3355 11.7939 24.3472 11.7976L24.8785 11.9628C25.0157 12.0055 25.1269 12.0032 25.2122 11.9554C25.2974 11.9081 25.3532 11.8417 25.3798 11.7572C25.4062 11.6723 25.3994 11.5845 25.3594 11.494C25.3193 11.4035 25.2162 11.332 25.0501 11.2805L24.5567 11.1269C24.545 11.1232 24.5325 11.1297 24.5289 11.1413L24.3326 11.7697ZM23.0302 12.2659L24.1704 8.61678C24.174 8.60518 24.1866 8.59868 24.1983 8.6024L26.0541 9.18072C26.4441 9.30186 26.6977 9.48892 26.8152 9.74095C26.9325 9.99345 26.9518 10.2455 26.8729 10.498C26.8155 10.6818 26.7115 10.8322 26.5612 10.9482C26.4283 11.0512 26.2668 11.1055 26.0768 11.1111C26.0554 11.1116 26.0472 11.1394 26.0651 11.151C26.4575 11.4114 26.5858 11.7591 26.4498 12.1944C26.3642 12.4683 26.2033 12.6869 25.9672 12.8498C25.731 13.0123 25.3367 13.0076 24.7841 12.8359L23.0447 12.2938C23.033 12.29 23.0265 12.2775 23.0302 12.2659Z" fill="url(#paint26_linear_2647_2537)"/>
    <path d="M30.6717 15.1626L30.1497 15.8709C30.1427 15.8806 30.1287 15.8829 30.1185 15.8755L27.8077 14.1772C27.7979 14.1698 27.796 14.1558 27.803 14.1461L30.0725 11.0674C30.0799 11.0576 30.0939 11.0558 30.1036 11.0628L32.4145 12.7611C32.4247 12.7685 32.4266 12.7824 32.4191 12.7922L31.9157 13.4754C31.9087 13.4851 31.8948 13.487 31.885 13.48L30.5132 12.4719C30.5029 12.4645 30.489 12.4668 30.482 12.4765L30.1752 12.8924C30.1678 12.9022 30.1701 12.9161 30.1799 12.9235L31.2821 13.7335C31.2918 13.7409 31.2942 13.7548 31.2867 13.7646L30.8037 14.4199C30.7963 14.4301 30.7823 14.432 30.7726 14.4246L29.6704 13.6146C29.6606 13.6077 29.6467 13.6095 29.6392 13.6193L29.2906 14.0922C29.2831 14.1025 29.2855 14.1164 29.2952 14.1233L30.667 15.1319C30.6768 15.1389 30.6791 15.1528 30.6717 15.1626Z" fill="url(#paint27_linear_2647_2537)"/>
    <path d="M34.7304 16.8283L32.4005 18.5531C32.3908 18.5605 32.3768 18.5587 32.3694 18.5485L31.7251 17.681C31.7177 17.6712 31.72 17.6573 31.7297 17.6499L34.0596 15.9251C34.0694 15.9177 34.0717 15.9037 34.0643 15.894L33.6124 15.2855C33.605 15.2758 33.6073 15.2618 33.6171 15.2544L34.3269 14.729C34.3367 14.722 34.3506 14.7239 34.3576 14.7336L35.9586 16.8896C35.9661 16.8993 35.9642 16.9133 35.954 16.9207L35.2446 17.4456C35.2348 17.4531 35.2209 17.4512 35.2134 17.4415L34.7616 16.833C34.7542 16.8232 34.7407 16.8209 34.7304 16.8283Z" fill="url(#paint28_linear_2647_2537)"/>
    <path d="M35.0084 22.0588C35.0716 22.2486 35.1994 22.3582 35.3933 22.387C35.5871 22.4153 35.9051 22.3568 36.3467 22.2115C36.9864 22.0008 37.2495 21.7242 37.1361 21.3816C37.0138 21.0122 36.5885 20.9476 35.8591 21.1876C35.1748 21.4132 34.8912 21.7037 35.0084 22.0588ZM34.1749 22.3391C34.0043 21.8226 34.0368 21.3454 34.272 20.9068C34.5077 20.4682 34.9126 20.1539 35.4877 19.9646C36.0371 19.7836 36.5429 19.7896 37.004 19.9827C37.4652 20.1758 37.7869 20.5485 37.9696 21.1008C38.1383 21.6118 38.1072 22.0843 37.8761 22.5174C37.6446 22.9504 37.2472 23.26 36.6833 23.4461C36.0994 23.6383 35.5778 23.6304 35.1186 23.4215C34.6593 23.2131 34.3446 22.852 34.1749 22.3391Z" fill="url(#paint29_linear_2647_2537)"/>
    <path d="M37.3958 27.1209C37.3838 27.1204 37.3735 27.1301 37.3731 27.1427L37.3563 27.6695C37.3521 27.8073 37.3838 27.9057 37.4521 27.9647C37.5204 28.0232 37.5939 28.0538 37.6734 28.0566C37.8891 28.0631 38.0011 27.9345 38.0095 27.6704L38.0253 27.1631C38.0257 27.1506 38.016 27.1404 38.0039 27.1399L37.3958 27.1209ZM35.8702 27.073C35.8581 27.0726 35.8478 27.0823 35.8474 27.0944L35.8297 27.65C35.8251 27.7934 35.8576 27.8997 35.9259 27.9689C35.9947 28.038 36.0738 28.0742 36.1626 28.077C36.2513 28.0798 36.3341 28.0501 36.4108 27.987C36.4875 27.9243 36.5289 27.8059 36.5344 27.6323L36.5507 27.1167C36.5507 27.1041 36.5414 27.0939 36.5289 27.0939L35.8702 27.073ZM35.0427 25.9531L38.869 26.0733C38.8816 26.0737 38.8908 26.084 38.8904 26.096L38.8295 28.0362C38.8165 28.4437 38.704 28.7379 38.4925 28.9185C38.2805 29.0986 38.042 29.1849 37.777 29.1766C37.5846 29.1705 37.4117 29.1107 37.2592 28.9974C37.1244 28.8972 37.0286 28.756 36.9728 28.5746C36.9663 28.5541 36.9375 28.5537 36.9305 28.5741C36.7845 29.0215 36.4833 29.2378 36.0273 29.2234C35.7395 29.2146 35.4857 29.1181 35.2654 28.9347C35.045 28.7509 34.9441 28.3703 34.9623 27.7929L35.0195 25.9744C35.0199 25.9623 35.0301 25.9526 35.0427 25.9531Z" fill="url(#paint30_linear_2647_2537)"/>
    <path d="M9.39566 41.7194L8.83229 42.3486L6.80176 40.6932L7.30232 40.0811L8.01584 40.1332C8.11951 40.1419 8.32368 40.1453 8.62835 40.1435C8.93298 40.1416 9.14588 40.123 9.26717 40.0876C9.38845 40.0522 9.48524 39.9903 9.55752 39.9019C9.6266 39.8175 9.65798 39.7298 9.65161 39.6391C9.64529 39.5484 9.60294 39.4711 9.52461 39.4072C9.32872 39.2475 9.09359 39.3114 8.81927 39.599L8.25251 38.9192C8.55806 38.6463 8.87124 38.5133 9.19205 38.5204C9.5128 38.5274 9.8066 38.6397 10.0735 38.8572C10.3624 39.0928 10.5351 39.3624 10.5915 39.6662C10.6479 39.9699 10.5709 40.2505 10.3605 40.5078C10.2202 40.6794 10.037 40.8019 9.81097 40.8754C9.5849 40.9489 9.10019 40.9479 8.35696 40.8726L9.39566 41.7194Z" fill="url(#paint31_linear_2647_2537)"/>
    <path d="M12.3215 42.6158L12.7664 41.6908L11.7342 42.3341L12.3215 42.6158ZM13.2879 43.9085L12.8516 43.6993L12.5241 44.3799L11.6698 43.97L11.9973 43.2895L10.7295 42.6815L11.0536 42.0077L13.0826 40.7779L14.0369 41.2356L13.1758 43.0255L13.612 43.2347L13.2879 43.9085Z" fill="url(#paint32_linear_2647_2537)"/>
    <path d="M19.0781 45.8078L19.1487 44.5994C18.9398 44.7452 18.692 44.8098 18.4051 44.793C18.083 44.7743 17.8226 44.6709 17.6241 44.4829C17.4255 44.2949 17.3378 44.0016 17.3611 43.6029L17.4388 42.2713L18.4932 42.3326L18.4143 43.6843C18.4071 43.8067 18.4218 43.8948 18.4582 43.9491C18.4945 44.0033 18.5773 44.0342 18.7065 44.0417C18.8625 44.0508 19.0222 44.0256 19.1856 43.9662L19.2783 42.3783L20.3326 42.4397L20.1324 45.8691L19.0781 45.8078Z" fill="url(#paint33_linear_2647_2537)"/>
    <path d="M22.9524 44.1066L23.4991 44.0013L23.0369 43.0754L22.9524 44.1066ZM24.1425 45.3307L23.8233 44.7028L22.9183 44.8769L22.8436 45.5807L22.0018 45.7427L22.3938 42.1687L23.4903 41.9577L25.2008 45.1272L24.1425 45.3307Z" fill="url(#paint34_linear_2647_2537)"/>
    <path d="M27.9883 42.5159L28.8832 42.1501C29.025 42.5491 29.025 42.9077 28.8827 43.2255C28.7405 43.5435 28.4941 43.7865 28.1445 43.9546C27.7233 44.1569 27.3166 44.1811 26.9235 44.0274C26.5305 43.8736 26.216 43.5518 25.9799 43.0619C25.7459 42.5767 25.6799 42.1262 25.7816 41.7104C25.8834 41.2947 26.1537 40.9814 26.5928 40.7703C27.0032 40.5732 27.3733 40.5351 27.7029 40.6559C28.0325 40.7769 28.3021 41.0179 28.5113 41.379L27.6462 41.8533C27.5467 41.6462 27.4347 41.5157 27.3105 41.4616C27.1868 41.4076 27.071 41.4064 26.9636 41.4581C26.6637 41.6021 26.6588 41.975 26.9489 42.5768C27.1114 42.914 27.2607 43.1243 27.397 43.2077C27.5332 43.2912 27.6717 43.2991 27.8126 43.2314C28.0641 43.1106 28.1227 42.8721 27.9883 42.5159Z" fill="url(#paint35_linear_2647_2537)"/>
    <path d="M30.7989 40.5315L31.2243 40.173L30.3675 39.5909L30.7989 40.5315ZM32.4366 41.0186L31.8504 40.6266L31.1462 41.2203L31.426 41.8707L30.7706 42.4229L29.3625 39.1138L30.216 38.3946L33.2599 40.3244L32.4366 41.0186Z" fill="url(#paint36_linear_2647_2537)"/>
    <defs>
        <linearGradient id="paint0_linear_2647_2537" x1="211.569" y1="23.0951" x2="196.044" y2="23.8727" gradientUnits="userSpaceOnUse">
            <stop stop-color="#D56ED7"/>
            <stop offset="1" stop-color="#F15AB6"/>
        </linearGradient>
        <linearGradient id="paint1_linear_2647_2537" x1="211.569" y1="23.0951" x2="196.044" y2="23.8727" gradientUnits="userSpaceOnUse">
            <stop stop-color="#D56ED7"/>
            <stop offset="1" stop-color="#F15AB6"/>
        </linearGradient>
        <linearGradient id="paint2_linear_2647_2537" x1="215.699" y1="17.5" x2="191.237" y2="18.3955" gradientUnits="userSpaceOnUse">
            <stop stop-color="#D56ED7"/>
            <stop offset="1" stop-color="#F15AB6"/>
        </linearGradient>
        <linearGradient id="paint3_linear_2647_2537" x1="185.513" y1="20.5684" x2="55.0815" y2="66.0152" gradientUnits="userSpaceOnUse">
            <stop stop-color="#D56ED7"/>
            <stop offset="1" stop-color="#F15AB6"/>
        </linearGradient>
        <linearGradient id="paint4_linear_2647_2537" x1="185.513" y1="20.5684" x2="55.0815" y2="66.0152" gradientUnits="userSpaceOnUse">
            <stop stop-color="#D56ED7"/>
            <stop offset="1" stop-color="#F15AB6"/>
        </linearGradient>
        <linearGradient id="paint5_linear_2647_2537" x1="185.513" y1="20.5684" x2="55.0815" y2="66.0152" gradientUnits="userSpaceOnUse">
            <stop stop-color="#D56ED7"/>
            <stop offset="1" stop-color="#F15AB6"/>
        </linearGradient>
        <linearGradient id="paint6_linear_2647_2537" x1="185.513" y1="20.5684" x2="55.0815" y2="66.0152" gradientUnits="userSpaceOnUse">
            <stop stop-color="#D56ED7"/>
            <stop offset="1" stop-color="#F15AB6"/>
        </linearGradient>
        <linearGradient id="paint7_linear_2647_2537" x1="185.513" y1="20.5684" x2="55.0815" y2="66.0152" gradientUnits="userSpaceOnUse">
            <stop stop-color="#D56ED7"/>
            <stop offset="1" stop-color="#F15AB6"/>
        </linearGradient>
        <linearGradient id="paint8_linear_2647_2537" x1="185.513" y1="20.5684" x2="55.0815" y2="66.0152" gradientUnits="userSpaceOnUse">
            <stop stop-color="#D56ED7"/>
            <stop offset="1" stop-color="#F15AB6"/>
        </linearGradient>
        <linearGradient id="paint9_linear_2647_2537" x1="185.513" y1="20.5684" x2="55.0815" y2="66.0152" gradientUnits="userSpaceOnUse">
            <stop stop-color="#D56ED7"/>
            <stop offset="1" stop-color="#F15AB6"/>
        </linearGradient>
        <linearGradient id="paint10_linear_2647_2537" x1="185.513" y1="20.5684" x2="55.0815" y2="66.0152" gradientUnits="userSpaceOnUse">
            <stop stop-color="#D56ED7"/>
            <stop offset="1" stop-color="#F15AB6"/>
        </linearGradient>
        <linearGradient id="paint11_linear_2647_2537" x1="185.513" y1="20.5684" x2="55.0815" y2="66.0152" gradientUnits="userSpaceOnUse">
            <stop stop-color="#D56ED7"/>
            <stop offset="1" stop-color="#F15AB6"/>
        </linearGradient>
        <linearGradient id="paint12_linear_2647_2537" x1="185.513" y1="20.5684" x2="55.0815" y2="66.0152" gradientUnits="userSpaceOnUse">
            <stop stop-color="#D56ED7"/>
            <stop offset="1" stop-color="#F15AB6"/>
        </linearGradient>
        <linearGradient id="paint13_linear_2647_2537" x1="185.513" y1="20.5684" x2="55.0815" y2="66.0152" gradientUnits="userSpaceOnUse">
            <stop stop-color="#D56ED7"/>
            <stop offset="1" stop-color="#F15AB6"/>
        </linearGradient>
        <linearGradient id="paint14_linear_2647_2537" x1="185.513" y1="20.5684" x2="55.0815" y2="66.0152" gradientUnits="userSpaceOnUse">
            <stop stop-color="#D56ED7"/>
            <stop offset="1" stop-color="#F15AB6"/>
        </linearGradient>
        <linearGradient id="paint15_linear_2647_2537" x1="185.513" y1="20.5684" x2="55.0815" y2="66.0152" gradientUnits="userSpaceOnUse">
            <stop stop-color="#D56ED7"/>
            <stop offset="1" stop-color="#F15AB6"/>
        </linearGradient>
        <linearGradient id="paint16_linear_2647_2537" x1="33.2848" y1="37.7466" x2="5.56987" y2="36.7305" gradientUnits="userSpaceOnUse">
            <stop stop-color="#D56ED7"/>
            <stop offset="1" stop-color="#F15AB6"/>
        </linearGradient>
        <linearGradient id="paint17_linear_2647_2537" x1="39.5587" y1="42.8333" x2="-1.27397" y2="41.3362" gradientUnits="userSpaceOnUse">
            <stop stop-color="#D56ED7"/>
            <stop offset="1" stop-color="#F15AB6"/>
        </linearGradient>
        <linearGradient id="paint18_linear_2647_2537" x1="33.9583" y1="38.2912" x2="4.83854" y2="37.2236" gradientUnits="userSpaceOnUse">
            <stop stop-color="#D56ED7"/>
            <stop offset="1" stop-color="#F15AB6"/>
        </linearGradient>
        <linearGradient id="paint19_linear_2647_2537" x1="5.97239" y1="35.3919" x2="4.10482" y2="35.3235" gradientUnits="userSpaceOnUse">
            <stop stop-color="#D56ED7"/>
            <stop offset="1" stop-color="#F15AB6"/>
        </linearGradient>
        <linearGradient id="paint20_linear_2647_2537" x1="35.8756" y1="35.3919" x2="34.0079" y2="35.3235" gradientUnits="userSpaceOnUse">
            <stop stop-color="#D56ED7"/>
            <stop offset="1" stop-color="#F15AB6"/>
        </linearGradient>
        <linearGradient id="paint21_linear_2647_2537" x1="5.05753" y1="28.6475" x2="1.04673" y2="28.4753" gradientUnits="userSpaceOnUse">
            <stop stop-color="#D56ED7"/>
            <stop offset="1" stop-color="#F15AB6"/>
        </linearGradient>
        <linearGradient id="paint22_linear_2647_2537" x1="6.3124" y1="23.7083" x2="1.79311" y2="23.4996" gradientUnits="userSpaceOnUse">
            <stop stop-color="#D56ED7"/>
            <stop offset="1" stop-color="#F15AB6"/>
        </linearGradient>
        <linearGradient id="paint23_linear_2647_2537" x1="8.5479" y1="18.4223" x2="4.38994" y2="18.2679" gradientUnits="userSpaceOnUse">
            <stop stop-color="#D56ED7"/>
            <stop offset="1" stop-color="#F15AB6"/>
        </linearGradient>
        <linearGradient id="paint24_linear_2647_2537" x1="13.1915" y1="15.0971" x2="8.92358" y2="14.9535" gradientUnits="userSpaceOnUse">
            <stop stop-color="#D56ED7"/>
            <stop offset="1" stop-color="#F15AB6"/>
        </linearGradient>
        <linearGradient id="paint25_linear_2647_2537" x1="21.4186" y1="12.0479" x2="17.4986" y2="11.9211" gradientUnits="userSpaceOnUse">
            <stop stop-color="#D56ED7"/>
            <stop offset="1" stop-color="#F15AB6"/>
        </linearGradient>
        <linearGradient id="paint26_linear_2647_2537" x1="26.8716" y1="12.5134" x2="22.9043" y2="12.384" gradientUnits="userSpaceOnUse">
            <stop stop-color="#D56ED7"/>
            <stop offset="1" stop-color="#F15AB6"/>
        </linearGradient>
        <linearGradient id="paint27_linear_2647_2537" x1="32.3656" y1="15.3777" x2="27.6512" y2="15.2121" gradientUnits="userSpaceOnUse">
            <stop stop-color="#D56ED7"/>
            <stop offset="1" stop-color="#F15AB6"/>
        </linearGradient>
        <linearGradient id="paint28_linear_2647_2537" x1="35.9099" y1="18.1584" x2="31.5871" y2="17.9832" gradientUnits="userSpaceOnUse">
            <stop stop-color="#D56ED7"/>
            <stop offset="1" stop-color="#F15AB6"/>
        </linearGradient>
        <linearGradient id="paint29_linear_2647_2537" x1="38.0261" y1="23.1937" x2="33.9407" y2="23.0339" gradientUnits="userSpaceOnUse">
            <stop stop-color="#D56ED7"/>
            <stop offset="1" stop-color="#F15AB6"/>
        </linearGradient>
        <linearGradient id="paint30_linear_2647_2537" x1="38.841" y1="28.8834" x2="34.8376" y2="28.7073" gradientUnits="userSpaceOnUse">
            <stop stop-color="#D56ED7"/>
            <stop offset="1" stop-color="#F15AB6"/>
        </linearGradient>
        <linearGradient id="paint31_linear_2647_2537" x1="10.5616" y1="41.9498" x2="6.6806" y2="41.8085" gradientUnits="userSpaceOnUse">
            <stop stop-color="#D56ED7"/>
            <stop offset="1" stop-color="#F15AB6"/>
        </linearGradient>
        <linearGradient id="paint32_linear_2647_2537" x1="13.9953" y1="44.0047" x2="10.6236" y2="43.8913" gradientUnits="userSpaceOnUse">
            <stop stop-color="#D56ED7"/>
            <stop offset="1" stop-color="#F15AB6"/>
        </linearGradient>
        <linearGradient id="paint33_linear_2647_2537" x1="20.2952" y1="45.4944" x2="17.2615" y2="45.4025" gradientUnits="userSpaceOnUse">
            <stop stop-color="#D56ED7"/>
            <stop offset="1" stop-color="#F15AB6"/>
        </linearGradient>
        <linearGradient id="paint34_linear_2647_2537" x1="25.1607" y1="45.3484" x2="21.8988" y2="45.2475" gradientUnits="userSpaceOnUse">
            <stop stop-color="#D56ED7"/>
            <stop offset="1" stop-color="#F15AB6"/>
        </linearGradient>
        <linearGradient id="paint35_linear_2647_2537" x1="28.9486" y1="43.7582" x2="25.6312" y2="43.6466" gradientUnits="userSpaceOnUse">
            <stop stop-color="#D56ED7"/>
            <stop offset="1" stop-color="#F15AB6"/>
        </linearGradient>
        <linearGradient id="paint36_linear_2647_2537" x1="33.211" y1="42.0032" x2="29.2382" y2="41.8625" gradientUnits="userSpaceOnUse">
            <stop stop-color="#D56ED7"/>
            <stop offset="1" stop-color="#F15AB6"/>
        </linearGradient>
    </defs>
</svg>